<svg id="Layer_1" data-name="Layer 1" xmlns="http://www.w3.org/2000/svg" viewBox="0 0 71.72 71.72"><path d="M5.48-12.29a9.93,9.93,0,0,0,4.44-8.26A9.93,9.93,0,0,0,0-30.47a9.93,9.93,0,0,0-9.92,9.92,9.93,9.93,0,0,0,4.44,8.26A13.48,13.48,0,0,0-13.46,0,13.48,13.48,0,0,0,0,13.46,13.48,13.48,0,0,0,13.46,0,13.48,13.48,0,0,0,5.48-12.29ZM-7.09-20.55A7.1,7.1,0,0,1,0-27.64a7.1,7.1,0,0,1,7.09,7.09A7.1,7.1,0,0,1,0-13.46,7.1,7.1,0,0,1-7.09-20.55ZM0,10.63A10.64,10.64,0,0,1-10.63,0,10.64,10.64,0,0,1,0-10.63,10.64,10.64,0,0,1,10.63,0,10.64,10.64,0,0,1,0,10.63Z" transform="translate(35.86 35.86)"/><circle cx="35.86" cy="35.86" r="1.11"/><circle cx="35.86" cy="15.31" r="1.11"/><rect x="0.85" y="35.43" width="21.54" height="0.85"/><rect x="49.32" y="35.43" width="21.54" height="0.85"/><rect x="35.43" y="49.18" width="0.85" height="21.54"/><rect x="35.43" width="0.85" height="7.03"/><rect x="0.43" y="70.87" width="70.87" height="0.85"/><rect x="0.43" width="70.87" height="0.85"/><rect y="0.43" width="0.85" height="70.87"/><rect x="70.87" y="0.43" width="0.85" height="70.87"/></svg>