<?xml version="1.0" encoding="utf-8"?>
<!-- Generator: Adobe Illustrator 25.1.0, SVG Export Plug-In . SVG Version: 6.00 Build 0)  -->
<svg version="1.1" id="Layer_2" xmlns="http://www.w3.org/2000/svg" xmlns:xlink="http://www.w3.org/1999/xlink" x="0px" y="0px"
	 viewBox="0 0 283.46 283.46" style="enable-background:new 0 0 283.46 283.46;" xml:space="preserve">
<style type="text/css">
	.st0{fill:none;stroke:#000000;stroke-width:1.0006;stroke-miterlimit:10;}
</style>
<path class="st0" d="M266.86,283.46H16.61C7.44,283.46,0,276.03,0,266.86V16.61C0,7.44,7.44,0,16.61,0h250.25
	c9.17,0,16.61,7.44,16.61,16.61v250.25C283.46,276.03,276.03,283.46,266.86,283.46z"/>
<g>
	<path d="M86.4,39.9l3.51,8.07l3.52-8.07h0.46v8.53h-0.32v-8.06l-3.54,8.06h-0.25l-3.52-8.02v8.02h-0.32V39.9H86.4z"/>
	<path d="M100.17,48.43c-0.08-0.27-0.12-0.66-0.12-1.16c-0.25,0.41-0.59,0.72-1.03,0.94s-0.92,0.33-1.47,0.33
		c-0.59,0-1.06-0.16-1.42-0.48s-0.54-0.73-0.54-1.25c0-0.58,0.26-1.05,0.79-1.4s1.22-0.53,2.09-0.54h1.56v-0.93
		c0-0.53-0.17-0.94-0.5-1.24s-0.81-0.44-1.43-0.44c-0.58,0-1.06,0.15-1.45,0.45s-0.58,0.66-0.58,1.1l-0.32-0.01
		c0-0.52,0.23-0.95,0.68-1.31s1.01-0.54,1.66-0.54c0.68,0,1.23,0.17,1.63,0.51s0.61,0.82,0.62,1.44v3.03c0,0.7,0.05,1.17,0.16,1.42
		v0.05H100.17z M97.55,48.23c0.59,0,1.1-0.13,1.53-0.4s0.75-0.64,0.96-1.12v-1.51h-1.46c-0.91,0-1.6,0.18-2.08,0.54
		c-0.39,0.29-0.59,0.66-0.59,1.1c0,0.39,0.15,0.71,0.46,0.98S97.08,48.23,97.55,48.23z"/>
	<path d="M105.2,42.32l-0.41-0.04c-0.54,0-0.99,0.17-1.35,0.52c-0.36,0.35-0.6,0.84-0.71,1.47v4.15h-0.32v-6.34h0.32v1.32
		c0.17-0.44,0.43-0.79,0.77-1.05s0.78-0.39,1.29-0.39c0.18,0,0.33,0.02,0.45,0.07L105.2,42.32z"/>
	<path d="M107.67,45l-0.01,0.01l-0.92,0.79v2.63h-0.32v-9h0.32v6.03l0.74-0.7l2.88-2.67h0.45l-2.91,2.7l3.09,3.64h-0.41L107.67,45z"
		/>
	<path d="M114.38,48.55c-0.51,0-0.98-0.14-1.41-0.41s-0.76-0.65-1-1.13s-0.36-1.01-0.36-1.6v-0.26c0-0.59,0.12-1.12,0.35-1.61
		s0.56-0.87,0.97-1.14s0.86-0.41,1.34-0.41c0.71,0,1.29,0.25,1.73,0.76s0.67,1.17,0.67,1.99v0.33h-4.75v0.34
		c0,0.51,0.11,0.99,0.33,1.43s0.52,0.78,0.9,1.03c0.38,0.25,0.79,0.37,1.24,0.37c0.43,0,0.79-0.07,1.09-0.21
		c0.3-0.14,0.56-0.36,0.79-0.65l0.22,0.16C116.01,48.2,115.31,48.55,114.38,48.55z M114.26,42.29c-0.62,0-1.14,0.23-1.57,0.69
		s-0.68,1.04-0.76,1.75h4.42v-0.08c0-0.43-0.09-0.83-0.27-1.2s-0.43-0.66-0.75-0.86S114.65,42.29,114.26,42.29z"/>
	<path d="M120.94,42.32l-0.41-0.04c-0.54,0-0.99,0.17-1.35,0.52c-0.36,0.35-0.6,0.84-0.71,1.47v4.15h-0.32v-6.34h0.32v1.32
		c0.17-0.44,0.43-0.79,0.77-1.05s0.78-0.39,1.29-0.39c0.18,0,0.33,0.02,0.45,0.07L120.94,42.32z"/>
	<path d="M125.51,48.43v-6.02h-1.1v-0.32h1.1v-0.93c0-0.59,0.15-1.04,0.44-1.37s0.7-0.49,1.22-0.49c0.29,0,0.54,0.03,0.75,0.1
		l-0.05,0.3c-0.2-0.06-0.44-0.09-0.7-0.09c-0.42,0-0.75,0.14-0.99,0.41s-0.36,0.66-0.36,1.16v0.9h1.68v0.32h-1.68v6.02H125.51z"/>
	<path d="M128.33,45.14c0-0.61,0.12-1.15,0.35-1.63s0.56-0.86,0.98-1.13s0.9-0.4,1.44-0.4c0.53,0,1.01,0.13,1.43,0.39
		s0.75,0.63,0.99,1.11s0.36,1.02,0.36,1.62v0.28c0,0.61-0.12,1.15-0.35,1.63s-0.56,0.86-0.98,1.13s-0.9,0.4-1.44,0.4
		s-1.01-0.13-1.44-0.4s-0.75-0.64-0.99-1.12s-0.35-1.02-0.36-1.61V45.14z M128.64,45.38c0,0.53,0.1,1.01,0.31,1.45
		s0.5,0.78,0.87,1.03s0.8,0.37,1.28,0.37c0.72,0,1.31-0.27,1.77-0.81s0.68-1.24,0.68-2.1v-0.18c0-0.52-0.11-1-0.32-1.44
		s-0.5-0.79-0.88-1.03s-0.8-0.37-1.27-0.37c-0.72,0-1.31,0.28-1.77,0.83s-0.69,1.24-0.69,2.08V45.38z"/>
	<path d="M138.21,42.32l-0.41-0.04c-0.54,0-0.99,0.17-1.35,0.52c-0.36,0.35-0.6,0.84-0.71,1.47v4.15h-0.32v-6.34h0.32v1.32
		c0.17-0.44,0.43-0.79,0.77-1.05s0.78-0.39,1.29-0.39c0.18,0,0.33,0.02,0.45,0.07L138.21,42.32z"/>
	<path d="M146.39,48.43c-0.08-0.27-0.12-0.66-0.12-1.16c-0.25,0.41-0.59,0.72-1.03,0.94s-0.92,0.33-1.47,0.33
		c-0.59,0-1.06-0.16-1.42-0.48s-0.54-0.73-0.54-1.25c0-0.58,0.26-1.05,0.79-1.4c0.53-0.35,1.22-0.53,2.1-0.54h1.56v-0.93
		c0-0.53-0.17-0.94-0.5-1.24s-0.81-0.44-1.43-0.44c-0.58,0-1.06,0.15-1.45,0.45c-0.39,0.3-0.58,0.66-0.58,1.1L142,43.82
		c0-0.52,0.23-0.95,0.68-1.31c0.45-0.36,1.01-0.54,1.66-0.54c0.68,0,1.23,0.17,1.63,0.51s0.61,0.82,0.62,1.44v3.03
		c0,0.7,0.05,1.17,0.16,1.42v0.05H146.39z M143.78,48.23c0.59,0,1.1-0.13,1.53-0.4s0.75-0.64,0.96-1.12v-1.51h-1.46
		c-0.91,0-1.6,0.18-2.08,0.54c-0.39,0.29-0.59,0.66-0.59,1.1c0,0.39,0.15,0.71,0.46,0.98S143.31,48.23,143.78,48.23z"/>
	<path d="M149.02,48.43h-0.32v-9h0.32V48.43z"/>
	<path d="M151.02,40.11c0-0.09,0.03-0.17,0.09-0.23s0.14-0.1,0.23-0.1s0.17,0.03,0.23,0.1s0.1,0.14,0.1,0.23s-0.03,0.17-0.1,0.23
		s-0.14,0.09-0.23,0.09s-0.17-0.03-0.23-0.09S151.02,40.2,151.02,40.11z M151.5,48.43h-0.32v-6.34h0.32V48.43z"/>
	<path d="M153.28,45.19c0-1.01,0.21-1.8,0.64-2.37s1.01-0.85,1.75-0.85c0.47,0,0.89,0.11,1.26,0.33s0.66,0.53,0.88,0.95v-1.16h0.32
		v6.23c0,0.84-0.21,1.49-0.64,1.96s-1.01,0.71-1.75,0.71c-0.43,0-0.82-0.09-1.17-0.28c-0.35-0.18-0.66-0.45-0.91-0.79l0.22-0.21
		c0.25,0.31,0.52,0.55,0.81,0.72c0.29,0.17,0.64,0.25,1.03,0.25c0.65,0,1.16-0.2,1.52-0.59s0.55-0.95,0.56-1.68v-0.97
		c-0.22,0.36-0.51,0.64-0.89,0.83s-0.8,0.29-1.27,0.29c-0.73,0-1.31-0.29-1.74-0.87s-0.64-1.38-0.64-2.4V45.19z M153.6,45.32
		c0,0.91,0.18,1.62,0.54,2.14s0.86,0.78,1.51,0.78c0.54,0,0.99-0.12,1.37-0.37s0.64-0.6,0.8-1.05v-2.88
		c-0.34-1.1-1.06-1.65-2.15-1.65c-0.65,0-1.16,0.26-1.52,0.77S153.6,44.32,153.6,45.32z"/>
	<path d="M160.47,43.57c0.21-0.49,0.51-0.88,0.91-1.17s0.85-0.43,1.34-0.43c0.68,0,1.18,0.19,1.51,0.58s0.5,0.97,0.5,1.74v4.14
		h-0.32v-4.14c0-0.68-0.14-1.18-0.42-1.51c-0.27-0.33-0.71-0.49-1.3-0.49c-0.55,0-1.02,0.19-1.42,0.58c-0.4,0.39-0.67,0.89-0.81,1.5
		v4.06h-0.32v-6.34h0.32V43.57z"/>
	<path d="M171.26,48.43h-0.32v-4.26c0-0.64-0.14-1.11-0.42-1.42c-0.28-0.31-0.71-0.47-1.32-0.47c-0.7,0-1.26,0.31-1.71,0.92
		c-0.26,0.37-0.44,0.77-0.52,1.22v4h-0.32v-6.34h0.32v1.5c0.21-0.52,0.52-0.91,0.92-1.2s0.84-0.42,1.32-0.42
		c0.53,0,0.97,0.12,1.3,0.35s0.56,0.62,0.67,1.15c0.19-0.46,0.49-0.82,0.91-1.09s0.89-0.41,1.42-0.41c0.68,0,1.19,0.19,1.53,0.58
		s0.5,0.97,0.51,1.74v4.14h-0.32v-4.11c0-0.69-0.14-1.21-0.42-1.54c-0.28-0.33-0.72-0.5-1.32-0.49c-0.77,0.01-1.38,0.32-1.83,0.92
		c-0.26,0.35-0.4,0.68-0.42,1.01V48.43z"/>
	<path d="M179.76,48.55c-0.51,0-0.98-0.14-1.41-0.41s-0.76-0.65-1-1.13s-0.36-1.01-0.36-1.6v-0.26c0-0.59,0.12-1.12,0.35-1.61
		s0.56-0.87,0.97-1.14s0.86-0.41,1.34-0.41c0.71,0,1.29,0.25,1.73,0.76s0.67,1.17,0.67,1.99v0.33h-4.75v0.34
		c0,0.51,0.11,0.99,0.33,1.43s0.52,0.78,0.9,1.03c0.38,0.25,0.79,0.37,1.24,0.37c0.43,0,0.79-0.07,1.09-0.21
		c0.3-0.14,0.56-0.36,0.79-0.65l0.22,0.16C181.39,48.2,180.69,48.55,179.76,48.55z M179.64,42.29c-0.62,0-1.14,0.23-1.57,0.69
		s-0.68,1.04-0.76,1.75h4.42v-0.08c0-0.43-0.09-0.83-0.27-1.2s-0.43-0.66-0.75-0.86S180.04,42.29,179.64,42.29z"/>
	<path d="M183.85,43.57c0.21-0.49,0.51-0.88,0.91-1.17s0.85-0.43,1.34-0.43c0.68,0,1.18,0.19,1.51,0.58s0.5,0.97,0.5,1.74v4.14
		h-0.32v-4.14c0-0.68-0.14-1.18-0.42-1.51c-0.27-0.33-0.71-0.49-1.3-0.49c-0.55,0-1.02,0.19-1.42,0.58c-0.4,0.39-0.67,0.89-0.81,1.5
		v4.06h-0.32v-6.34h0.32V43.57z"/>
	<path d="M190.81,40.38v1.71h1.44v0.32h-1.44v4.5c0,0.45,0.07,0.78,0.22,1s0.39,0.32,0.74,0.32c0.17,0,0.38-0.02,0.63-0.05l0.05,0.3
		c-0.13,0.05-0.35,0.07-0.66,0.07c-0.46,0-0.79-0.13-0.99-0.38c-0.2-0.26-0.3-0.66-0.3-1.21v-4.54h-1.17v-0.32h1.17v-1.71H190.81z"
		/>
</g>
<g>
	<path d="M13.39,68.94L16.9,77l3.52-8.07h0.46v8.53h-0.32v-8.06l-3.54,8.06h-0.25l-3.52-8.02v8.02h-0.32v-8.53H13.39z"/>
	<path d="M27.16,77.47c-0.08-0.27-0.12-0.66-0.12-1.16c-0.25,0.41-0.59,0.72-1.03,0.94s-0.92,0.33-1.47,0.33
		c-0.59,0-1.06-0.16-1.42-0.48s-0.54-0.73-0.54-1.25c0-0.58,0.26-1.05,0.79-1.4s1.22-0.53,2.09-0.54h1.56V73
		c0-0.53-0.17-0.94-0.5-1.24s-0.81-0.44-1.43-0.44c-0.58,0-1.06,0.15-1.45,0.45s-0.58,0.66-0.58,1.1l-0.32-0.01
		c0-0.52,0.23-0.95,0.68-1.31s1.01-0.54,1.66-0.54c0.68,0,1.23,0.17,1.63,0.51s0.61,0.82,0.62,1.44V76c0,0.7,0.05,1.17,0.16,1.42
		v0.05H27.16z M24.54,77.27c0.59,0,1.1-0.13,1.53-0.4s0.75-0.64,0.96-1.12v-1.51h-1.46c-0.91,0-1.6,0.18-2.08,0.54
		c-0.39,0.29-0.59,0.66-0.59,1.1c0,0.39,0.15,0.71,0.46,0.98S24.07,77.27,24.54,77.27z"/>
	<path d="M32.19,71.36l-0.41-0.04c-0.54,0-0.99,0.17-1.35,0.52c-0.36,0.35-0.6,0.84-0.71,1.47v4.15H29.4v-6.34h0.32v1.32
		c0.17-0.44,0.43-0.79,0.77-1.05s0.78-0.39,1.29-0.39c0.18,0,0.33,0.02,0.45,0.07L32.19,71.36z"/>
	<path d="M34.66,74.04l-0.01,0.01l-0.92,0.79v2.63h-0.32v-9h0.32v6.03l0.74-0.7l2.88-2.67h0.45l-2.91,2.7l3.09,3.64h-0.41
		L34.66,74.04z"/>
	<path d="M41.37,77.58c-0.51,0-0.98-0.14-1.41-0.41s-0.76-0.65-1-1.13s-0.36-1.01-0.36-1.6v-0.26c0-0.59,0.12-1.12,0.35-1.61
		s0.56-0.87,0.97-1.14s0.86-0.41,1.34-0.41c0.71,0,1.29,0.25,1.73,0.76s0.67,1.17,0.67,1.99v0.33H38.9v0.34
		c0,0.51,0.11,0.99,0.33,1.43s0.52,0.78,0.9,1.03c0.38,0.25,0.79,0.37,1.24,0.37c0.43,0,0.79-0.07,1.09-0.21
		c0.3-0.14,0.56-0.36,0.79-0.65l0.22,0.16C43,77.24,42.3,77.58,41.37,77.58z M41.25,71.33c-0.62,0-1.14,0.23-1.57,0.69
		s-0.68,1.04-0.76,1.75h4.42v-0.08c0-0.43-0.09-0.83-0.27-1.2s-0.43-0.66-0.75-0.86S41.64,71.33,41.25,71.33z"/>
	<path d="M47.93,71.36l-0.41-0.04c-0.54,0-0.99,0.17-1.35,0.52c-0.36,0.35-0.6,0.84-0.71,1.47v4.15h-0.32v-6.34h0.32v1.32
		c0.17-0.44,0.43-0.79,0.77-1.05s0.78-0.39,1.29-0.39c0.18,0,0.33,0.02,0.45,0.07L47.93,71.36z"/>
	<path d="M54.81,71.36l-0.41-0.04c-0.54,0-0.99,0.17-1.35,0.52c-0.36,0.35-0.6,0.84-0.71,1.47v4.15h-0.32v-6.34h0.32v1.32
		c0.17-0.44,0.43-0.79,0.77-1.05s0.78-0.39,1.29-0.39c0.18,0,0.33,0.02,0.45,0.07L54.81,71.36z"/>
	<path d="M58.31,77.58c-0.51,0-0.98-0.14-1.41-0.41s-0.76-0.65-1-1.13s-0.36-1.01-0.36-1.6v-0.26c0-0.59,0.12-1.12,0.35-1.61
		s0.56-0.87,0.97-1.14s0.86-0.41,1.34-0.41c0.71,0,1.29,0.25,1.73,0.76s0.67,1.17,0.67,1.99v0.33h-4.75v0.34
		c0,0.51,0.11,0.99,0.33,1.43s0.52,0.78,0.9,1.03c0.38,0.25,0.79,0.37,1.24,0.37c0.43,0,0.79-0.07,1.09-0.21
		c0.3-0.14,0.56-0.36,0.79-0.65l0.22,0.16C59.94,77.24,59.24,77.58,58.31,77.58z M58.19,71.33c-0.62,0-1.14,0.23-1.57,0.69
		s-0.68,1.04-0.76,1.75h4.42v-0.08c0-0.43-0.09-0.83-0.27-1.2s-0.43-0.66-0.75-0.86S58.59,71.33,58.19,71.33z"/>
	<path d="M64.23,77.27c0.57,0,1.05-0.15,1.42-0.46s0.58-0.73,0.61-1.27h0.32c-0.03,0.61-0.27,1.11-0.71,1.48s-0.99,0.56-1.64,0.56
		c-0.79,0-1.42-0.29-1.89-0.86s-0.7-1.35-0.7-2.34v-0.21c0-0.96,0.23-1.73,0.7-2.3s1.09-0.86,1.88-0.86c0.67,0,1.23,0.2,1.66,0.6
		s0.67,0.94,0.7,1.61h-0.32c-0.03-0.57-0.23-1.03-0.6-1.37s-0.85-0.52-1.44-0.52c-0.71,0-1.26,0.25-1.66,0.76s-0.6,1.22-0.6,2.12
		v0.21c0,0.89,0.2,1.58,0.61,2.09S63.52,77.27,64.23,77.27z"/>
	<path d="M67.69,74.17c0-0.61,0.12-1.15,0.35-1.63s0.56-0.86,0.98-1.13s0.9-0.4,1.44-0.4c0.53,0,1.01,0.13,1.43,0.39
		s0.75,0.63,0.99,1.11s0.36,1.02,0.36,1.62v0.28c0,0.61-0.12,1.15-0.35,1.63s-0.56,0.86-0.98,1.13s-0.9,0.4-1.44,0.4
		s-1.01-0.13-1.44-0.4s-0.75-0.64-0.99-1.12s-0.35-1.02-0.36-1.61V74.17z M68,74.42c0,0.53,0.1,1.01,0.31,1.45s0.5,0.78,0.87,1.03
		s0.8,0.37,1.28,0.37c0.72,0,1.31-0.27,1.77-0.81s0.68-1.24,0.68-2.1v-0.18c0-0.52-0.11-1-0.32-1.44s-0.5-0.79-0.88-1.03
		s-0.8-0.37-1.27-0.37c-0.72,0-1.31,0.28-1.77,0.83S68,73.4,68,74.23V74.42z"/>
	<path d="M74.47,74.23c0-1.01,0.21-1.8,0.64-2.37s1.01-0.85,1.75-0.85c0.47,0,0.89,0.11,1.26,0.33s0.66,0.53,0.88,0.95v-1.16h0.32
		v6.23c0,0.84-0.21,1.49-0.64,1.96s-1.01,0.71-1.75,0.71c-0.43,0-0.82-0.09-1.17-0.28c-0.35-0.18-0.66-0.45-0.91-0.79l0.22-0.21
		c0.25,0.31,0.52,0.55,0.81,0.72c0.29,0.17,0.64,0.25,1.03,0.25c0.65,0,1.16-0.2,1.52-0.59s0.55-0.95,0.56-1.68v-0.97
		c-0.22,0.36-0.51,0.64-0.89,0.83s-0.8,0.29-1.27,0.29c-0.73,0-1.31-0.29-1.74-0.87s-0.64-1.38-0.64-2.4V74.23z M74.79,74.36
		c0,0.91,0.18,1.62,0.54,2.14s0.86,0.78,1.51,0.78c0.54,0,0.99-0.12,1.37-0.37s0.64-0.6,0.8-1.05v-2.88
		c-0.34-1.1-1.06-1.65-2.15-1.65c-0.65,0-1.16,0.26-1.52,0.77S74.79,73.36,74.79,74.36z"/>
	<path d="M81.67,72.6c0.21-0.49,0.51-0.88,0.91-1.17s0.85-0.43,1.34-0.43c0.68,0,1.18,0.19,1.51,0.58s0.5,0.97,0.5,1.74v4.14h-0.32
		v-4.14c0-0.68-0.14-1.18-0.42-1.51c-0.27-0.33-0.71-0.49-1.3-0.49c-0.55,0-1.02,0.19-1.42,0.58c-0.4,0.39-0.67,0.89-0.81,1.5v4.06
		h-0.32v-6.34h0.32V72.6z"/>
	<path d="M87.83,69.15c0-0.09,0.03-0.17,0.09-0.23s0.14-0.1,0.23-0.1s0.17,0.03,0.23,0.1s0.1,0.14,0.1,0.23s-0.03,0.17-0.1,0.23
		s-0.14,0.09-0.23,0.09s-0.17-0.03-0.23-0.09S87.83,69.24,87.83,69.15z M88.31,77.47h-0.32v-6.34h0.32V77.47z"/>
	<path d="M94.3,75.92c0-0.77-0.66-1.29-1.97-1.57c-0.79-0.17-1.34-0.38-1.65-0.65s-0.46-0.63-0.46-1.09c0-0.46,0.2-0.85,0.59-1.15
		s0.9-0.45,1.53-0.45c0.68,0,1.23,0.16,1.65,0.49s0.62,0.77,0.62,1.32h-0.32c0-0.43-0.18-0.78-0.54-1.07s-0.83-0.43-1.41-0.43
		c-0.55,0-0.99,0.12-1.32,0.36s-0.49,0.54-0.49,0.91c0,0.29,0.06,0.51,0.18,0.67s0.32,0.31,0.59,0.44s0.67,0.26,1.2,0.38
		s0.94,0.26,1.24,0.43s0.53,0.36,0.66,0.58s0.21,0.5,0.21,0.82c0,0.5-0.21,0.9-0.62,1.21s-0.95,0.46-1.61,0.46
		c-0.71,0-1.28-0.16-1.72-0.48s-0.65-0.74-0.65-1.25h0.32c0.03,0.45,0.23,0.79,0.59,1.04s0.85,0.37,1.47,0.37
		c0.57,0,1.03-0.13,1.38-0.4S94.3,76.29,94.3,75.92z"/>
	<path d="M100.46,77.47c-0.08-0.27-0.12-0.66-0.12-1.16c-0.25,0.41-0.59,0.72-1.03,0.94s-0.92,0.33-1.47,0.33
		c-0.59,0-1.06-0.16-1.42-0.48s-0.54-0.73-0.54-1.25c0-0.58,0.26-1.05,0.79-1.4s1.22-0.53,2.09-0.54h1.56V73
		c0-0.53-0.17-0.94-0.5-1.24s-0.81-0.44-1.43-0.44c-0.58,0-1.06,0.15-1.45,0.45s-0.58,0.66-0.58,1.1l-0.32-0.01
		c0-0.52,0.23-0.95,0.68-1.31s1.01-0.54,1.66-0.54c0.68,0,1.23,0.17,1.63,0.51s0.61,0.82,0.62,1.44V76c0,0.7,0.05,1.17,0.16,1.42
		v0.05H100.46z M97.84,77.27c0.59,0,1.1-0.13,1.53-0.4s0.75-0.64,0.96-1.12v-1.51h-1.46c-0.91,0-1.6,0.18-2.08,0.54
		c-0.39,0.29-0.59,0.66-0.59,1.1c0,0.39,0.15,0.71,0.46,0.98S97.37,77.27,97.84,77.27z"/>
	<path d="M107.54,74.36c0,0.99-0.21,1.77-0.64,2.36s-1.01,0.87-1.74,0.87c-0.48,0-0.9-0.1-1.28-0.3s-0.67-0.47-0.88-0.82v1h-0.32v-9
		H103v3.81c0.22-0.42,0.52-0.73,0.88-0.95s0.79-0.32,1.27-0.32c0.74,0,1.33,0.28,1.75,0.85s0.64,1.37,0.64,2.39V74.36z
		 M107.21,74.23c0-0.91-0.18-1.62-0.54-2.14s-0.87-0.77-1.51-0.77c-0.53,0-0.98,0.14-1.35,0.41s-0.64,0.68-0.81,1.22v2.91
		c0.17,0.45,0.44,0.8,0.81,1.04s0.82,0.37,1.36,0.37c0.65,0,1.16-0.26,1.51-0.78S107.21,75.22,107.21,74.23z"/>
	<path d="M109.66,77.47h-0.32v-9h0.32V77.47z"/>
	<path d="M114.02,77.58c-0.51,0-0.98-0.14-1.41-0.41s-0.76-0.65-1-1.13s-0.36-1.01-0.36-1.6v-0.26c0-0.59,0.12-1.12,0.35-1.61
		s0.56-0.87,0.97-1.14s0.86-0.41,1.34-0.41c0.71,0,1.29,0.25,1.73,0.76s0.67,1.17,0.67,1.99v0.33h-4.75v0.34
		c0,0.51,0.11,0.99,0.33,1.43s0.52,0.78,0.9,1.03c0.38,0.25,0.79,0.37,1.24,0.37c0.43,0,0.79-0.07,1.09-0.21
		c0.3-0.14,0.56-0.36,0.79-0.65l0.22,0.16C115.65,77.24,114.95,77.58,114.02,77.58z M113.9,71.33c-0.62,0-1.14,0.23-1.57,0.69
		s-0.68,1.04-0.76,1.75h4.42v-0.08c0-0.43-0.09-0.83-0.27-1.2s-0.43-0.66-0.75-0.86S114.29,71.33,113.9,71.33z"/>
	<path d="M125.5,74.36c0,0.99-0.21,1.77-0.64,2.36s-1.01,0.87-1.74,0.87c-0.48,0-0.9-0.1-1.28-0.3s-0.67-0.47-0.88-0.82v1h-0.32v-9
		h0.32v3.81c0.22-0.42,0.52-0.73,0.88-0.95s0.79-0.32,1.27-0.32c0.74,0,1.33,0.28,1.75,0.85s0.64,1.37,0.64,2.39V74.36z
		 M125.17,74.23c0-0.91-0.18-1.62-0.54-2.14s-0.87-0.77-1.51-0.77c-0.53,0-0.98,0.14-1.35,0.41s-0.64,0.68-0.81,1.22v2.91
		c0.17,0.45,0.44,0.8,0.81,1.04s0.82,0.37,1.36,0.37c0.65,0,1.16-0.26,1.51-0.78S125.17,75.22,125.17,74.23z"/>
	<path d="M129.16,76.98l0.04-0.12l2.19-5.73h0.35l-2.84,7.44l-0.14,0.35c-0.3,0.74-0.81,1.11-1.51,1.11c-0.23,0-0.38-0.02-0.47-0.07
		l-0.01-0.3c0.13,0.04,0.27,0.05,0.43,0.05c0.33,0,0.61-0.1,0.83-0.29c0.22-0.19,0.41-0.51,0.57-0.94l0.39-1.05l-2.53-6.3h0.35
		L129.16,76.98z"/>
	<path d="M135.99,77.47v-8.53h2.24c0.92,0,1.61,0.19,2.08,0.56s0.71,0.92,0.71,1.63c0,0.52-0.13,0.94-0.39,1.28
		s-0.63,0.56-1.11,0.65c0.54,0.07,0.99,0.3,1.35,0.7s0.54,0.85,0.54,1.36c0,0.73-0.24,1.3-0.71,1.72s-1.13,0.63-1.97,0.63H135.99z
		 M136.31,72.94h2.04c0.78,0,1.36-0.15,1.76-0.45s0.59-0.76,0.59-1.39c0-1.21-0.8-1.83-2.4-1.85h-2V72.94z M136.31,73.25v3.9h2.47
		c0.72,0,1.29-0.18,1.7-0.54s0.62-0.85,0.62-1.49c0-0.54-0.2-0.98-0.6-1.33s-0.93-0.53-1.6-0.54H136.31z"/>
	<path d="M145.86,71.36l-0.41-0.04c-0.54,0-0.99,0.17-1.35,0.52c-0.36,0.35-0.6,0.84-0.71,1.47v4.15h-0.32v-6.34h0.32v1.32
		c0.17-0.44,0.43-0.79,0.77-1.05s0.78-0.39,1.29-0.39c0.18,0,0.33,0.02,0.45,0.07L145.86,71.36z"/>
	<path d="M146.48,74.17c0-0.61,0.12-1.15,0.35-1.63s0.56-0.86,0.98-1.13s0.9-0.4,1.44-0.4c0.53,0,1.01,0.13,1.43,0.39
		s0.75,0.63,0.99,1.11s0.36,1.02,0.36,1.62v0.28c0,0.61-0.12,1.15-0.35,1.63s-0.56,0.86-0.98,1.13s-0.9,0.4-1.44,0.4
		s-1.01-0.13-1.44-0.4s-0.75-0.64-0.99-1.12s-0.35-1.02-0.36-1.61V74.17z M146.79,74.42c0,0.53,0.1,1.01,0.31,1.45
		s0.5,0.78,0.87,1.03s0.8,0.37,1.28,0.37c0.72,0,1.31-0.27,1.77-0.81s0.68-1.24,0.68-2.1v-0.18c0-0.52-0.11-1-0.32-1.44
		s-0.5-0.79-0.88-1.03s-0.8-0.37-1.27-0.37c-0.72,0-1.31,0.28-1.77,0.83s-0.69,1.24-0.69,2.08V74.42z"/>
	<path d="M154.27,69.42v1.71h1.44v0.32h-1.44v4.5c0,0.45,0.07,0.78,0.22,1s0.39,0.32,0.74,0.32c0.17,0,0.38-0.02,0.63-0.05l0.05,0.3
		c-0.13,0.05-0.35,0.07-0.66,0.07c-0.46,0-0.79-0.13-0.99-0.38c-0.2-0.26-0.3-0.66-0.3-1.21v-4.54h-1.17v-0.32h1.17v-1.71H154.27z"
		/>
	<path d="M157.67,72.6c0.21-0.49,0.51-0.88,0.91-1.17s0.85-0.43,1.34-0.43c0.68,0,1.18,0.19,1.51,0.58s0.5,0.97,0.5,1.74v4.14h-0.32
		v-4.14c0-0.68-0.14-1.18-0.42-1.51c-0.27-0.33-0.71-0.49-1.3-0.49c-0.55,0-1.02,0.19-1.42,0.58c-0.4,0.39-0.67,0.89-0.81,1.5v4.06
		h-0.32v-9h0.32V72.6z"/>
	<path d="M166.21,77.58c-0.51,0-0.98-0.14-1.41-0.41s-0.76-0.65-1-1.13s-0.36-1.01-0.36-1.6v-0.26c0-0.59,0.12-1.12,0.35-1.61
		s0.56-0.87,0.97-1.14s0.86-0.41,1.34-0.41c0.71,0,1.29,0.25,1.73,0.76s0.67,1.17,0.67,1.99v0.33h-4.75v0.34
		c0,0.51,0.11,0.99,0.33,1.43s0.52,0.78,0.9,1.03c0.38,0.25,0.79,0.37,1.24,0.37c0.43,0,0.79-0.07,1.09-0.21
		c0.3-0.14,0.56-0.36,0.79-0.65l0.22,0.16C167.84,77.24,167.13,77.58,166.21,77.58z M166.09,71.33c-0.62,0-1.14,0.23-1.57,0.69
		s-0.68,1.04-0.76,1.75h4.42v-0.08c0-0.43-0.09-0.83-0.27-1.2s-0.43-0.66-0.75-0.86S166.48,71.33,166.09,71.33z"/>
	<path d="M172.77,71.36l-0.41-0.04c-0.54,0-0.99,0.17-1.35,0.52c-0.36,0.35-0.6,0.84-0.71,1.47v4.15h-0.32v-6.34h0.32v1.32
		c0.17-0.44,0.43-0.79,0.77-1.05s0.78-0.39,1.29-0.39c0.18,0,0.33,0.02,0.45,0.07L172.77,71.36z"/>
	<path d="M17.53,87.64h-4.28v3.91h4.88v0.32h-5.19v-8.53h5.19v0.32h-4.88v3.67h4.28V87.64z"/>
	<path d="M24.14,91.87h-0.32v-4.26c0-0.64-0.14-1.11-0.42-1.42c-0.28-0.31-0.71-0.47-1.32-0.47c-0.7,0-1.26,0.31-1.71,0.92
		c-0.26,0.37-0.44,0.77-0.52,1.22v4h-0.32v-6.34h0.32v1.5c0.21-0.52,0.52-0.91,0.92-1.2s0.84-0.42,1.32-0.42
		c0.53,0,0.97,0.12,1.3,0.35s0.56,0.62,0.67,1.15c0.19-0.46,0.49-0.82,0.91-1.09s0.89-0.41,1.42-0.41c0.68,0,1.19,0.19,1.53,0.58
		s0.5,0.97,0.51,1.74v4.14h-0.32v-4.11c0-0.69-0.14-1.21-0.42-1.54c-0.28-0.33-0.72-0.5-1.32-0.49c-0.77,0.01-1.38,0.32-1.83,0.92
		c-0.26,0.35-0.4,0.68-0.42,1.01V91.87z"/>
	<path d="M35.21,88.76c0,0.99-0.21,1.77-0.64,2.36s-1.01,0.87-1.74,0.87c-0.48,0-0.9-0.1-1.28-0.3s-0.67-0.47-0.88-0.82v1h-0.32v-9
		h0.32v3.81c0.22-0.42,0.52-0.73,0.88-0.95s0.79-0.32,1.27-0.32c0.74,0,1.33,0.28,1.75,0.85s0.64,1.37,0.64,2.39V88.76z
		 M34.88,88.63c0-0.91-0.18-1.62-0.54-2.14s-0.87-0.77-1.51-0.77c-0.53,0-0.98,0.14-1.35,0.41s-0.64,0.68-0.81,1.22v2.91
		c0.17,0.45,0.44,0.8,0.81,1.04s0.82,0.37,1.36,0.37c0.65,0,1.16-0.26,1.51-0.78S34.88,89.62,34.88,88.63z"/>
	<path d="M39.73,85.76l-0.41-0.04c-0.54,0-0.99,0.17-1.35,0.52c-0.36,0.35-0.6,0.84-0.71,1.47v4.15h-0.32v-6.34h0.32v1.32
		c0.17-0.44,0.43-0.79,0.77-1.05s0.78-0.39,1.29-0.39c0.18,0,0.33,0.02,0.45,0.07L39.73,85.76z"/>
	<path d="M40.35,88.58c0-0.61,0.12-1.15,0.35-1.63s0.56-0.86,0.98-1.13s0.9-0.4,1.44-0.4c0.53,0,1.01,0.13,1.43,0.39
		s0.75,0.63,0.99,1.11s0.36,1.02,0.36,1.62v0.28c0,0.61-0.12,1.15-0.35,1.63s-0.56,0.86-0.98,1.13s-0.9,0.4-1.44,0.4
		s-1.01-0.13-1.44-0.4s-0.75-0.64-0.99-1.12s-0.35-1.02-0.36-1.61V88.58z M40.66,88.82c0,0.53,0.1,1.01,0.31,1.45
		s0.5,0.78,0.87,1.03s0.8,0.37,1.28,0.37c0.72,0,1.31-0.27,1.77-0.81s0.68-1.24,0.68-2.1v-0.18c0-0.52-0.11-1-0.32-1.44
		s-0.5-0.79-0.88-1.03s-0.8-0.37-1.27-0.37c-0.72,0-1.31,0.28-1.77,0.83s-0.69,1.24-0.69,2.08V88.82z"/>
	<path d="M47.34,83.55c0-0.09,0.03-0.17,0.09-0.23s0.14-0.1,0.23-0.1s0.17,0.03,0.23,0.1s0.1,0.14,0.1,0.23s-0.03,0.17-0.1,0.23
		s-0.14,0.09-0.23,0.09s-0.17-0.03-0.23-0.09S47.34,83.64,47.34,83.55z M47.82,91.87h-0.32v-6.34h0.32V91.87z"/>
	<path d="M49.61,88.63c0-1.01,0.21-1.8,0.64-2.37s1.01-0.85,1.75-0.85c0.48,0,0.9,0.11,1.26,0.32s0.66,0.54,0.89,0.96v-3.83h0.32v9
		h-0.32v-1.01c-0.21,0.36-0.51,0.64-0.88,0.83s-0.8,0.3-1.28,0.3c-0.73,0-1.31-0.29-1.74-0.87s-0.64-1.38-0.64-2.4V88.63z
		 M49.94,88.76c0,0.9,0.18,1.61,0.53,2.13s0.86,0.78,1.51,0.78c0.52,0,0.97-0.12,1.34-0.35s0.65-0.57,0.83-1.02v-2.97
		c-0.36-1.07-1.08-1.6-2.16-1.6c-0.65,0-1.15,0.26-1.51,0.77S49.94,87.76,49.94,88.76z"/>
	<path d="M58.75,91.99c-0.51,0-0.98-0.14-1.41-0.41s-0.76-0.65-1-1.13s-0.36-1.01-0.36-1.6v-0.26c0-0.59,0.12-1.12,0.35-1.61
		s0.56-0.87,0.97-1.14s0.86-0.41,1.34-0.41c0.71,0,1.29,0.25,1.73,0.76s0.67,1.17,0.67,1.99v0.33h-4.75v0.34
		c0,0.51,0.11,0.99,0.33,1.43s0.52,0.78,0.9,1.03c0.38,0.25,0.79,0.37,1.24,0.37c0.43,0,0.79-0.07,1.09-0.21
		c0.3-0.14,0.56-0.36,0.79-0.65l0.22,0.16C60.38,91.64,59.68,91.99,58.75,91.99z M58.63,85.73c-0.62,0-1.14,0.23-1.57,0.69
		s-0.68,1.04-0.76,1.75h4.42v-0.08c0-0.43-0.09-0.83-0.27-1.2s-0.43-0.66-0.75-0.86S59.03,85.73,58.63,85.73z"/>
	<path d="M65.31,85.76l-0.41-0.04c-0.54,0-0.99,0.17-1.35,0.52c-0.36,0.35-0.6,0.84-0.71,1.47v4.15h-0.32v-6.34h0.32v1.32
		c0.17-0.44,0.43-0.79,0.77-1.05s0.78-0.39,1.29-0.39c0.18,0,0.33,0.02,0.45,0.07L65.31,85.76z"/>
	<path d="M68.47,91.38l0.04-0.12l2.19-5.73h0.35l-2.84,7.44l-0.14,0.35c-0.3,0.74-0.81,1.11-1.51,1.11c-0.23,0-0.38-0.02-0.47-0.07
		l-0.01-0.3c0.13,0.04,0.27,0.05,0.43,0.05c0.33,0,0.61-0.1,0.83-0.29c0.22-0.19,0.41-0.51,0.57-0.94l0.39-1.05l-2.53-6.3h0.35
		L68.47,91.38z"/>
	<path d="M79.67,91.87h-0.32v-4.26c0-0.64-0.14-1.11-0.42-1.42c-0.28-0.31-0.71-0.47-1.32-0.47c-0.7,0-1.26,0.31-1.71,0.92
		c-0.26,0.37-0.44,0.77-0.52,1.22v4h-0.32v-6.34h0.32v1.5c0.21-0.52,0.52-0.91,0.92-1.2s0.84-0.42,1.32-0.42
		c0.53,0,0.97,0.12,1.3,0.35s0.56,0.62,0.67,1.15c0.19-0.46,0.49-0.82,0.91-1.09s0.89-0.41,1.42-0.41c0.68,0,1.19,0.19,1.53,0.58
		s0.5,0.97,0.51,1.74v4.14h-0.32v-4.11c0-0.69-0.14-1.21-0.42-1.54c-0.28-0.33-0.72-0.5-1.32-0.49c-0.77,0.01-1.38,0.32-1.83,0.92
		c-0.26,0.35-0.4,0.68-0.42,1.01V91.87z"/>
	<path d="M89.99,91.87c-0.08-0.27-0.12-0.66-0.12-1.16c-0.25,0.41-0.59,0.72-1.03,0.94s-0.92,0.33-1.47,0.33
		c-0.59,0-1.06-0.16-1.42-0.48s-0.54-0.73-0.54-1.25c0-0.58,0.26-1.05,0.79-1.4s1.22-0.53,2.09-0.54h1.56V87.4
		c0-0.53-0.17-0.94-0.5-1.24s-0.81-0.44-1.43-0.44c-0.58,0-1.06,0.15-1.45,0.45s-0.58,0.66-0.58,1.1l-0.32-0.01
		c0-0.52,0.23-0.95,0.68-1.31s1.01-0.54,1.66-0.54c0.68,0,1.23,0.17,1.63,0.51s0.61,0.82,0.62,1.44v3.03c0,0.7,0.05,1.17,0.16,1.42
		v0.05H89.99z M87.37,91.67c0.59,0,1.1-0.13,1.53-0.4s0.75-0.64,0.96-1.12v-1.51H88.4c-0.91,0-1.6,0.18-2.08,0.54
		c-0.39,0.29-0.59,0.66-0.59,1.1c0,0.39,0.15,0.71,0.46,0.98S86.9,91.67,87.37,91.67z"/>
	<path d="M94.38,91.67c0.57,0,1.05-0.15,1.42-0.46s0.58-0.73,0.61-1.27h0.32c-0.03,0.61-0.27,1.11-0.71,1.48s-0.99,0.56-1.64,0.56
		c-0.79,0-1.42-0.29-1.89-0.86s-0.7-1.35-0.7-2.34v-0.21c0-0.96,0.23-1.73,0.7-2.3s1.09-0.86,1.88-0.86c0.67,0,1.23,0.2,1.66,0.6
		s0.67,0.94,0.7,1.61h-0.32c-0.03-0.57-0.23-1.03-0.6-1.37s-0.85-0.52-1.44-0.52c-0.71,0-1.26,0.25-1.66,0.76s-0.6,1.22-0.6,2.12
		v0.21c0,0.89,0.2,1.58,0.61,2.09S93.67,91.67,94.38,91.67z"/>
	<path d="M98.63,87c0.21-0.49,0.51-0.88,0.91-1.17s0.85-0.43,1.34-0.43c0.68,0,1.18,0.19,1.51,0.58s0.5,0.97,0.5,1.74v4.14h-0.32
		v-4.14c0-0.68-0.14-1.18-0.42-1.51c-0.27-0.33-0.71-0.49-1.3-0.49c-0.55,0-1.02,0.19-1.42,0.58c-0.4,0.39-0.67,0.89-0.81,1.5v4.06
		h-0.32v-9h0.32V87z"/>
	<path d="M104.79,83.55c0-0.09,0.03-0.17,0.09-0.23s0.14-0.1,0.23-0.1s0.17,0.03,0.23,0.1s0.1,0.14,0.1,0.23s-0.03,0.17-0.1,0.23
		s-0.14,0.09-0.23,0.09s-0.17-0.03-0.23-0.09S104.79,83.64,104.79,83.55z M105.27,91.87h-0.32v-6.34h0.32V91.87z"/>
	<path d="M107.67,87c0.21-0.49,0.51-0.88,0.91-1.17s0.85-0.43,1.34-0.43c0.68,0,1.18,0.19,1.51,0.58s0.5,0.97,0.5,1.74v4.14h-0.32
		v-4.14c0-0.68-0.14-1.18-0.42-1.51c-0.27-0.33-0.71-0.49-1.3-0.49c-0.55,0-1.02,0.19-1.42,0.58c-0.4,0.39-0.67,0.89-0.81,1.5v4.06
		h-0.32v-6.34h0.32V87z"/>
	<path d="M116.2,91.99c-0.51,0-0.98-0.14-1.41-0.41s-0.76-0.65-1-1.13s-0.36-1.01-0.36-1.6v-0.26c0-0.59,0.12-1.12,0.35-1.61
		s0.56-0.87,0.97-1.14s0.86-0.41,1.34-0.41c0.71,0,1.29,0.25,1.73,0.76s0.67,1.17,0.67,1.99v0.33h-4.75v0.34
		c0,0.51,0.11,0.99,0.33,1.43s0.52,0.78,0.9,1.03c0.38,0.25,0.79,0.37,1.24,0.37c0.43,0,0.79-0.07,1.09-0.21
		c0.3-0.14,0.56-0.36,0.79-0.65l0.22,0.16C117.83,91.64,117.13,91.99,116.2,91.99z M116.08,85.73c-0.62,0-1.14,0.23-1.57,0.69
		s-0.68,1.04-0.76,1.75h4.42v-0.08c0-0.43-0.09-0.83-0.27-1.2s-0.43-0.66-0.75-0.86S116.48,85.73,116.08,85.73z"/>
	<path d="M123.88,90.32c0-0.77-0.66-1.29-1.97-1.57c-0.79-0.17-1.34-0.38-1.65-0.65s-0.46-0.63-0.46-1.09c0-0.46,0.2-0.85,0.59-1.15
		s0.9-0.45,1.53-0.45c0.68,0,1.23,0.16,1.65,0.49s0.62,0.77,0.62,1.32h-0.32c0-0.43-0.18-0.78-0.54-1.07s-0.83-0.43-1.41-0.43
		c-0.55,0-0.99,0.12-1.32,0.36s-0.49,0.54-0.49,0.91c0,0.29,0.06,0.51,0.18,0.67s0.32,0.31,0.59,0.44s0.67,0.26,1.2,0.38
		s0.94,0.26,1.24,0.43s0.53,0.36,0.66,0.58s0.21,0.5,0.21,0.82c0,0.5-0.21,0.9-0.62,1.21s-0.95,0.46-1.61,0.46
		c-0.71,0-1.28-0.16-1.72-0.48s-0.65-0.74-0.65-1.25h0.32c0.03,0.45,0.23,0.79,0.59,1.04s0.85,0.37,1.47,0.37
		c0.57,0,1.03-0.13,1.38-0.4S123.88,90.69,123.88,90.32z"/>
	<path d="M129.95,90.03l0.35,1.37l1.86-5.87h0.32l1.85,5.87l0.36-1.37l1.29-4.51h0.37l-1.85,6.34h-0.32l-1.56-4.76l-0.3-1.14
		l-0.32,1.14l-1.54,4.76h-0.32l-1.84-6.34h0.36L129.95,90.03z"/>
	<path d="M137.81,83.55c0-0.09,0.03-0.17,0.09-0.23s0.14-0.1,0.23-0.1s0.17,0.03,0.23,0.1s0.1,0.14,0.1,0.23s-0.03,0.17-0.1,0.23
		s-0.14,0.09-0.23,0.09s-0.17-0.03-0.23-0.09S137.81,83.64,137.81,83.55z M138.29,91.87h-0.32v-6.34h0.32V91.87z"/>
	<path d="M141.07,83.82v1.71h1.44v0.32h-1.44v4.5c0,0.45,0.07,0.78,0.22,1s0.39,0.32,0.74,0.32c0.17,0,0.38-0.02,0.63-0.05l0.05,0.3
		c-0.13,0.05-0.35,0.07-0.66,0.07c-0.46,0-0.79-0.13-0.99-0.38c-0.2-0.26-0.3-0.66-0.3-1.21v-4.54h-1.17v-0.32h1.17v-1.71H141.07z"
		/>
	<path d="M144.48,87c0.21-0.49,0.51-0.88,0.91-1.17s0.85-0.43,1.34-0.43c0.68,0,1.18,0.19,1.51,0.58s0.5,0.97,0.5,1.74v4.14h-0.32
		v-4.14c0-0.68-0.14-1.18-0.42-1.51c-0.27-0.33-0.71-0.49-1.3-0.49c-0.55,0-1.02,0.19-1.42,0.58c-0.4,0.39-0.67,0.89-0.81,1.5v4.06
		h-0.32v-9h0.32V87z"/>
	<path d="M155.75,91.67c0.57,0,1.05-0.15,1.42-0.46s0.58-0.73,0.61-1.27h0.32c-0.03,0.61-0.27,1.11-0.71,1.48s-0.99,0.56-1.64,0.56
		c-0.79,0-1.42-0.29-1.89-0.86s-0.7-1.35-0.7-2.34v-0.21c0-0.96,0.23-1.73,0.7-2.3s1.09-0.86,1.88-0.86c0.67,0,1.23,0.2,1.66,0.6
		s0.67,0.94,0.7,1.61h-0.32c-0.03-0.57-0.23-1.03-0.6-1.37s-0.85-0.52-1.44-0.52c-0.71,0-1.26,0.25-1.66,0.76s-0.6,1.22-0.6,2.12
		v0.21c0,0.89,0.2,1.58,0.61,2.09S155.04,91.67,155.75,91.67z"/>
	<path d="M163.79,91.87c-0.08-0.27-0.12-0.66-0.12-1.16c-0.25,0.41-0.59,0.72-1.03,0.94s-0.92,0.33-1.47,0.33
		c-0.59,0-1.06-0.16-1.42-0.48s-0.54-0.73-0.54-1.25c0-0.58,0.26-1.05,0.79-1.4s1.22-0.53,2.09-0.54h1.56V87.4
		c0-0.53-0.17-0.94-0.5-1.24s-0.81-0.44-1.43-0.44c-0.58,0-1.06,0.15-1.45,0.45s-0.58,0.66-0.58,1.1l-0.32-0.01
		c0-0.52,0.23-0.95,0.68-1.31s1.01-0.54,1.66-0.54c0.68,0,1.23,0.17,1.63,0.51s0.61,0.82,0.62,1.44v3.03c0,0.7,0.05,1.17,0.16,1.42
		v0.05H163.79z M161.17,91.67c0.59,0,1.1-0.13,1.53-0.4s0.75-0.64,0.96-1.12v-1.51h-1.46c-0.91,0-1.6,0.18-2.08,0.54
		c-0.39,0.29-0.59,0.66-0.59,1.1c0,0.39,0.15,0.71,0.46,0.98S160.7,91.67,161.17,91.67z"/>
	<path d="M170.56,91.87h-0.32v-4.26c0-0.64-0.14-1.11-0.42-1.42c-0.28-0.31-0.71-0.47-1.32-0.47c-0.7,0-1.26,0.31-1.71,0.92
		c-0.26,0.37-0.44,0.77-0.52,1.22v4h-0.32v-6.34h0.32v1.5c0.21-0.52,0.52-0.91,0.92-1.2s0.84-0.42,1.32-0.42
		c0.53,0,0.97,0.12,1.3,0.35s0.56,0.62,0.67,1.15c0.19-0.46,0.49-0.82,0.91-1.09s0.89-0.41,1.42-0.41c0.68,0,1.19,0.19,1.53,0.58
		s0.5,0.97,0.51,1.74v4.14h-0.32v-4.11c0-0.69-0.14-1.21-0.42-1.54c-0.28-0.33-0.72-0.5-1.32-0.49c-0.77,0.01-1.38,0.32-1.83,0.92
		c-0.26,0.35-0.4,0.68-0.42,1.01V91.87z"/>
	<path d="M179.06,91.99c-0.51,0-0.98-0.14-1.41-0.41s-0.76-0.65-1-1.13s-0.36-1.01-0.36-1.6v-0.26c0-0.59,0.12-1.12,0.35-1.61
		s0.56-0.87,0.97-1.14s0.86-0.41,1.34-0.41c0.71,0,1.29,0.25,1.73,0.76s0.67,1.17,0.67,1.99v0.33h-4.75v0.34
		c0,0.51,0.11,0.99,0.33,1.43s0.52,0.78,0.9,1.03c0.38,0.25,0.79,0.37,1.24,0.37c0.43,0,0.79-0.07,1.09-0.21
		c0.3-0.14,0.56-0.36,0.79-0.65l0.22,0.16C180.69,91.64,179.99,91.99,179.06,91.99z M178.94,85.73c-0.62,0-1.14,0.23-1.57,0.69
		s-0.68,1.04-0.76,1.75h4.42v-0.08c0-0.43-0.09-0.83-0.27-1.2s-0.43-0.66-0.75-0.86S179.34,85.73,178.94,85.73z"/>
	<path d="M185.62,85.76l-0.41-0.04c-0.54,0-0.99,0.17-1.35,0.52c-0.36,0.35-0.6,0.84-0.71,1.47v4.15h-0.32v-6.34h0.32v1.32
		c0.17-0.44,0.43-0.79,0.77-1.05s0.78-0.39,1.29-0.39c0.18,0,0.33,0.02,0.45,0.07L185.62,85.76z"/>
	<path d="M190.7,91.87c-0.08-0.27-0.12-0.66-0.12-1.16c-0.25,0.41-0.59,0.72-1.03,0.94s-0.92,0.33-1.47,0.33
		c-0.59,0-1.06-0.16-1.42-0.48s-0.54-0.73-0.54-1.25c0-0.58,0.26-1.05,0.79-1.4s1.22-0.53,2.09-0.54h1.56V87.4
		c0-0.53-0.17-0.94-0.5-1.24s-0.81-0.44-1.43-0.44c-0.58,0-1.06,0.15-1.45,0.45s-0.58,0.66-0.58,1.1l-0.32-0.01
		c0-0.52,0.23-0.95,0.68-1.31s1.01-0.54,1.66-0.54c0.68,0,1.23,0.17,1.63,0.51s0.61,0.82,0.62,1.44v3.03c0,0.7,0.05,1.17,0.16,1.42
		v0.05H190.7z M188.09,91.67c0.59,0,1.1-0.13,1.53-0.4s0.75-0.64,0.96-1.12v-1.51h-1.46c-0.91,0-1.6,0.18-2.08,0.54
		c-0.39,0.29-0.59,0.66-0.59,1.1c0,0.39,0.15,0.71,0.46,0.98S187.62,91.67,188.09,91.67z"/>
</g>
<g>
	<path d="M13.26,195.45c0-0.36-0.08-0.67-0.25-0.92s-0.44-0.47-0.8-0.67s-0.92-0.39-1.66-0.59s-1.29-0.41-1.66-0.62
		s-0.64-0.45-0.81-0.72s-0.26-0.61-0.26-1c0-0.62,0.26-1.12,0.79-1.51s1.21-0.58,2.04-0.58c0.55,0,1.04,0.11,1.47,0.32
		s0.77,0.51,1.01,0.9s0.36,0.82,0.36,1.3h-0.32c0-0.64-0.23-1.16-0.7-1.58s-1.08-0.62-1.82-0.62c-0.75,0-1.36,0.17-1.82,0.5
		s-0.69,0.75-0.69,1.26c0,0.51,0.2,0.92,0.6,1.24s1.07,0.59,1.99,0.83s1.6,0.52,2.03,0.83c0.55,0.4,0.82,0.94,0.82,1.62
		c0,0.43-0.12,0.81-0.36,1.14s-0.59,0.58-1.03,0.76s-0.95,0.27-1.5,0.27c-0.62,0-1.17-0.1-1.66-0.31s-0.86-0.5-1.11-0.88
		s-0.37-0.83-0.37-1.34h0.32c0,0.7,0.26,1.24,0.79,1.63s1.21,0.58,2.04,0.58c0.75,0,1.36-0.17,1.85-0.51S13.26,196,13.26,195.45z"/>
	<path d="M17.36,197.61c-0.51,0-0.98-0.14-1.41-0.41s-0.76-0.65-1-1.13s-0.36-1.01-0.36-1.6v-0.26c0-0.59,0.12-1.12,0.35-1.61
		s0.56-0.87,0.97-1.14s0.86-0.41,1.34-0.41c0.71,0,1.29,0.25,1.73,0.76s0.67,1.17,0.67,1.99v0.33H14.9v0.34
		c0,0.51,0.11,0.99,0.33,1.43s0.52,0.78,0.9,1.03c0.38,0.25,0.79,0.37,1.24,0.37c0.43,0,0.79-0.07,1.09-0.21
		c0.3-0.14,0.56-0.36,0.79-0.65l0.22,0.16C18.99,197.27,18.29,197.61,17.36,197.61z M17.24,191.36c-0.62,0-1.14,0.23-1.57,0.69
		s-0.68,1.04-0.76,1.75h4.42v-0.08c0-0.43-0.09-0.83-0.27-1.2s-0.43-0.66-0.75-0.86S17.64,191.36,17.24,191.36z"/>
	<path d="M21.52,197.5H21.2v-9h0.32V197.5z"/>
	<path d="M25.88,197.61c-0.51,0-0.98-0.14-1.41-0.41s-0.76-0.65-1-1.13s-0.36-1.01-0.36-1.6v-0.26c0-0.59,0.12-1.12,0.35-1.61
		s0.56-0.87,0.97-1.14s0.86-0.41,1.34-0.41c0.71,0,1.29,0.25,1.73,0.76s0.67,1.17,0.67,1.99v0.33h-4.75v0.34
		c0,0.51,0.11,0.99,0.33,1.43s0.52,0.78,0.9,1.03c0.38,0.25,0.79,0.37,1.24,0.37c0.43,0,0.79-0.07,1.09-0.21
		c0.3-0.14,0.56-0.36,0.79-0.65l0.22,0.16C27.51,197.27,26.81,197.61,25.88,197.61z M25.76,191.36c-0.62,0-1.14,0.23-1.57,0.69
		s-0.68,1.04-0.76,1.75h4.42v-0.08c0-0.43-0.09-0.83-0.27-1.2s-0.43-0.66-0.75-0.86S26.16,191.36,25.76,191.36z"/>
	<path d="M31.8,197.3c0.57,0,1.05-0.15,1.42-0.46s0.58-0.73,0.61-1.27h0.32c-0.03,0.61-0.27,1.11-0.71,1.48s-0.99,0.56-1.64,0.56
		c-0.79,0-1.42-0.29-1.89-0.86s-0.7-1.35-0.7-2.34v-0.21c0-0.96,0.23-1.73,0.7-2.3s1.09-0.86,1.88-0.86c0.67,0,1.23,0.2,1.66,0.6
		s0.67,0.94,0.7,1.61h-0.32c-0.03-0.57-0.23-1.03-0.6-1.37s-0.85-0.52-1.44-0.52c-0.71,0-1.26,0.25-1.66,0.76s-0.6,1.22-0.6,2.12
		v0.21c0,0.89,0.2,1.58,0.61,2.09S31.09,197.3,31.8,197.3z"/>
	<path d="M36.44,189.45v1.71h1.44v0.32h-1.44v4.5c0,0.45,0.07,0.78,0.22,1s0.39,0.32,0.74,0.32c0.17,0,0.38-0.02,0.63-0.05l0.05,0.3
		c-0.13,0.05-0.35,0.07-0.66,0.07c-0.46,0-0.79-0.13-0.99-0.38c-0.2-0.26-0.3-0.66-0.3-1.21v-4.54h-1.17v-0.32h1.17v-1.71H36.44z"/>
	<path d="M43.11,189.45v1.71h1.44v0.32h-1.44v4.5c0,0.45,0.07,0.78,0.22,1s0.39,0.32,0.74,0.32c0.17,0,0.38-0.02,0.63-0.05l0.05,0.3
		c-0.13,0.05-0.35,0.07-0.66,0.07c-0.46,0-0.79-0.13-0.99-0.38c-0.2-0.26-0.3-0.66-0.3-1.21v-4.54h-1.17v-0.32h1.17v-1.71H43.11z"/>
	<path d="M46.52,192.63c0.21-0.49,0.51-0.88,0.91-1.17s0.85-0.43,1.34-0.43c0.68,0,1.18,0.19,1.51,0.58s0.5,0.97,0.5,1.74v4.14
		h-0.32v-4.14c0-0.68-0.14-1.18-0.42-1.51c-0.27-0.33-0.71-0.49-1.3-0.49c-0.55,0-1.02,0.19-1.42,0.58c-0.4,0.39-0.67,0.89-0.81,1.5
		v4.06H46.2v-9h0.32V192.63z"/>
	<path d="M55.05,197.61c-0.51,0-0.98-0.14-1.41-0.41s-0.76-0.65-1-1.13s-0.36-1.01-0.36-1.6v-0.26c0-0.59,0.12-1.12,0.35-1.61
		s0.56-0.87,0.97-1.14s0.86-0.41,1.34-0.41c0.71,0,1.29,0.25,1.73,0.76s0.67,1.17,0.67,1.99v0.33h-4.75v0.34
		c0,0.51,0.11,0.99,0.33,1.43s0.52,0.78,0.9,1.03c0.38,0.25,0.79,0.37,1.24,0.37c0.43,0,0.79-0.07,1.09-0.21
		c0.3-0.14,0.56-0.36,0.79-0.65l0.22,0.16C56.68,197.27,55.98,197.61,55.05,197.61z M54.93,191.36c-0.62,0-1.14,0.23-1.57,0.69
		s-0.68,1.04-0.76,1.75h4.42v-0.08c0-0.43-0.09-0.83-0.27-1.2s-0.43-0.66-0.75-0.86S55.32,191.36,54.93,191.36z"/>
	<path d="M62.39,189.45v1.71h1.44v0.32h-1.44v4.5c0,0.45,0.07,0.78,0.22,1s0.39,0.32,0.74,0.32c0.17,0,0.38-0.02,0.63-0.05l0.05,0.3
		c-0.13,0.05-0.35,0.07-0.66,0.07c-0.46,0-0.79-0.13-0.99-0.38c-0.2-0.26-0.3-0.66-0.3-1.21v-4.54H60.9v-0.32h1.17v-1.71H62.39z"/>
	<path d="M67.42,197l0.04-0.12l2.19-5.73h0.35l-2.84,7.44l-0.14,0.35c-0.3,0.74-0.81,1.11-1.51,1.11c-0.23,0-0.38-0.02-0.47-0.07
		l-0.01-0.3c0.13,0.04,0.27,0.05,0.43,0.05c0.33,0,0.61-0.1,0.83-0.29c0.22-0.19,0.41-0.51,0.57-0.94l0.39-1.05l-2.53-6.3h0.35
		L67.42,197z"/>
	<path d="M76.06,194.38c0,0.99-0.21,1.77-0.64,2.36s-1.01,0.87-1.74,0.87c-0.48,0-0.91-0.1-1.28-0.29s-0.67-0.46-0.88-0.81v3.42
		H71.2v-8.78h0.32v1.13c0.22-0.4,0.51-0.71,0.88-0.93s0.79-0.32,1.27-0.32c0.74,0,1.33,0.28,1.75,0.85s0.64,1.37,0.64,2.39V194.38z
		 M75.74,194.26c0-0.91-0.18-1.62-0.54-2.14s-0.87-0.77-1.52-0.77c-0.53,0-0.98,0.14-1.35,0.41s-0.64,0.67-0.8,1.19v2.96
		c0.16,0.44,0.43,0.78,0.81,1.02s0.83,0.36,1.36,0.36c0.65,0,1.15-0.26,1.51-0.77S75.74,195.25,75.74,194.26z"/>
	<path d="M80.06,197.61c-0.51,0-0.98-0.14-1.41-0.41s-0.76-0.65-1-1.13s-0.36-1.01-0.36-1.6v-0.26c0-0.59,0.12-1.12,0.35-1.61
		s0.56-0.87,0.97-1.14s0.86-0.41,1.34-0.41c0.71,0,1.29,0.25,1.73,0.76s0.67,1.17,0.67,1.99v0.33H77.6v0.34
		c0,0.51,0.11,0.99,0.33,1.43s0.52,0.78,0.9,1.03c0.38,0.25,0.79,0.37,1.24,0.37c0.43,0,0.79-0.07,1.09-0.21
		c0.3-0.14,0.56-0.36,0.79-0.65l0.22,0.16C81.69,197.27,80.99,197.61,80.06,197.61z M79.94,191.36c-0.62,0-1.14,0.23-1.57,0.69
		s-0.68,1.04-0.76,1.75h4.42v-0.08c0-0.43-0.09-0.83-0.27-1.2s-0.43-0.66-0.75-0.86S80.34,191.36,79.94,191.36z"/>
	<path d="M86.22,194.2c0-0.61,0.12-1.15,0.35-1.63s0.56-0.86,0.98-1.13s0.9-0.4,1.44-0.4c0.53,0,1.01,0.13,1.43,0.39
		s0.75,0.63,0.99,1.11s0.36,1.02,0.36,1.62v0.28c0,0.61-0.12,1.15-0.35,1.63s-0.56,0.86-0.98,1.13s-0.9,0.4-1.44,0.4
		s-1.01-0.13-1.44-0.4s-0.75-0.64-0.99-1.12s-0.35-1.02-0.36-1.61V194.2z M86.54,194.45c0,0.53,0.1,1.01,0.31,1.45
		s0.5,0.78,0.87,1.03s0.8,0.37,1.28,0.37c0.72,0,1.31-0.27,1.77-0.81s0.68-1.24,0.68-2.1v-0.18c0-0.52-0.11-1-0.32-1.44
		s-0.5-0.79-0.88-1.03s-0.8-0.37-1.27-0.37c-0.72,0-1.31,0.28-1.77,0.83s-0.69,1.24-0.69,2.08V194.45z"/>
	<path d="M93.78,197.5v-6.02h-1.1v-0.32h1.1v-0.93c0-0.59,0.15-1.04,0.44-1.37s0.7-0.49,1.22-0.49c0.29,0,0.54,0.03,0.75,0.1
		l-0.05,0.3c-0.2-0.06-0.44-0.09-0.7-0.09c-0.42,0-0.75,0.14-0.99,0.41s-0.36,0.66-0.36,1.16v0.9h1.68v0.32H94.1v6.02H93.78z"/>
	<path d="M104.49,197.5h-0.32v-4.26c0-0.64-0.14-1.11-0.42-1.42c-0.28-0.31-0.71-0.47-1.32-0.47c-0.7,0-1.26,0.31-1.71,0.92
		c-0.26,0.37-0.44,0.77-0.52,1.22v4h-0.32v-6.34h0.32v1.5c0.21-0.52,0.52-0.91,0.92-1.2s0.84-0.42,1.32-0.42
		c0.53,0,0.97,0.12,1.3,0.35s0.56,0.62,0.67,1.15c0.19-0.46,0.49-0.82,0.91-1.09s0.89-0.41,1.42-0.41c0.68,0,1.19,0.19,1.53,0.58
		s0.5,0.97,0.51,1.74v4.14h-0.32v-4.11c0-0.69-0.14-1.21-0.42-1.54c-0.28-0.33-0.72-0.5-1.32-0.49c-0.77,0.01-1.38,0.32-1.83,0.92
		c-0.26,0.35-0.4,0.68-0.42,1.01V197.5z"/>
	<path d="M114.81,197.5c-0.08-0.27-0.12-0.66-0.12-1.16c-0.25,0.41-0.59,0.72-1.03,0.94s-0.92,0.33-1.47,0.33
		c-0.59,0-1.06-0.16-1.42-0.48s-0.54-0.73-0.54-1.25c0-0.58,0.26-1.05,0.79-1.4s1.22-0.53,2.09-0.54h1.56v-0.93
		c0-0.53-0.17-0.94-0.5-1.24s-0.81-0.44-1.43-0.44c-0.58,0-1.06,0.15-1.45,0.45s-0.58,0.66-0.58,1.1l-0.32-0.01
		c0-0.52,0.23-0.95,0.68-1.31s1.01-0.54,1.66-0.54c0.68,0,1.23,0.17,1.63,0.51s0.61,0.82,0.62,1.44v3.03c0,0.7,0.05,1.17,0.16,1.42
		v0.05H114.81z M112.19,197.3c0.59,0,1.1-0.13,1.53-0.4s0.75-0.64,0.96-1.12v-1.51h-1.46c-0.91,0-1.6,0.18-2.08,0.54
		c-0.39,0.29-0.59,0.66-0.59,1.1c0,0.39,0.15,0.71,0.46,0.98S111.72,197.3,112.19,197.3z"/>
	<path d="M119.2,197.3c0.57,0,1.05-0.15,1.42-0.46s0.58-0.73,0.61-1.27h0.32c-0.03,0.61-0.27,1.11-0.71,1.48s-0.99,0.56-1.64,0.56
		c-0.79,0-1.42-0.29-1.89-0.86s-0.7-1.35-0.7-2.34v-0.21c0-0.96,0.23-1.73,0.7-2.3s1.09-0.86,1.88-0.86c0.67,0,1.23,0.2,1.66,0.6
		s0.67,0.94,0.7,1.61h-0.32c-0.03-0.57-0.23-1.03-0.6-1.37s-0.85-0.52-1.44-0.52c-0.71,0-1.26,0.25-1.66,0.76s-0.6,1.22-0.6,2.12
		v0.21c0,0.89,0.2,1.58,0.61,2.09S118.49,197.3,119.2,197.3z"/>
	<path d="M123.45,192.63c0.21-0.49,0.51-0.88,0.91-1.17s0.85-0.43,1.34-0.43c0.68,0,1.18,0.19,1.51,0.58s0.5,0.97,0.5,1.74v4.14
		h-0.32v-4.14c0-0.68-0.14-1.18-0.42-1.51c-0.27-0.33-0.71-0.49-1.3-0.49c-0.55,0-1.02,0.19-1.42,0.58c-0.4,0.39-0.67,0.89-0.81,1.5
		v4.06h-0.32v-9h0.32V192.63z"/>
	<path d="M129.61,189.18c0-0.09,0.03-0.17,0.09-0.23s0.14-0.1,0.23-0.1s0.17,0.03,0.23,0.1s0.1,0.14,0.1,0.23s-0.03,0.17-0.1,0.23
		s-0.14,0.09-0.23,0.09s-0.17-0.03-0.23-0.09S129.61,189.27,129.61,189.18z M130.09,197.5h-0.32v-6.34h0.32V197.5z"/>
	<path d="M132.49,192.63c0.21-0.49,0.51-0.88,0.91-1.17s0.85-0.43,1.34-0.43c0.68,0,1.18,0.19,1.51,0.58s0.5,0.97,0.5,1.74v4.14
		h-0.32v-4.14c0-0.68-0.14-1.18-0.42-1.51c-0.27-0.33-0.71-0.49-1.3-0.49c-0.55,0-1.02,0.19-1.42,0.58c-0.4,0.39-0.67,0.89-0.81,1.5
		v4.06h-0.32v-6.34h0.32V192.63z"/>
	<path d="M141.02,197.61c-0.51,0-0.98-0.14-1.41-0.41s-0.76-0.65-1-1.13s-0.36-1.01-0.36-1.6v-0.26c0-0.59,0.12-1.12,0.35-1.61
		s0.56-0.87,0.97-1.14s0.86-0.41,1.34-0.41c0.71,0,1.29,0.25,1.73,0.76s0.67,1.17,0.67,1.99v0.33h-4.75v0.34
		c0,0.51,0.11,0.99,0.33,1.43s0.52,0.78,0.9,1.03c0.38,0.25,0.79,0.37,1.24,0.37c0.43,0,0.79-0.07,1.09-0.21
		c0.3-0.14,0.56-0.36,0.79-0.65l0.22,0.16C142.65,197.27,141.95,197.61,141.02,197.61z M140.9,191.36c-0.62,0-1.14,0.23-1.57,0.69
		s-0.68,1.04-0.76,1.75H143v-0.08c0-0.43-0.09-0.83-0.27-1.2s-0.43-0.66-0.75-0.86S141.3,191.36,140.9,191.36z"/>
	<path d="M8.69,203.85v1.71h1.44v0.32H8.69v4.5c0,0.45,0.07,0.78,0.22,1s0.39,0.32,0.74,0.32c0.17,0,0.38-0.02,0.63-0.05l0.05,0.3
		c-0.13,0.05-0.35,0.07-0.66,0.07c-0.46,0-0.79-0.13-0.99-0.38c-0.2-0.26-0.3-0.66-0.3-1.21v-4.54H7.2v-0.32h1.17v-1.71H8.69z"/>
	<path d="M12.1,207.03c0.21-0.49,0.51-0.88,0.91-1.17s0.85-0.43,1.34-0.43c0.68,0,1.18,0.19,1.51,0.58s0.5,0.97,0.5,1.74v4.14h-0.32
		v-4.14c0-0.68-0.14-1.18-0.42-1.51c-0.27-0.33-0.71-0.49-1.3-0.49c-0.55,0-1.02,0.19-1.42,0.58c-0.4,0.39-0.67,0.89-0.81,1.5v4.06
		h-0.32v-9h0.32V207.03z"/>
	<path d="M20.63,212.01c-0.51,0-0.98-0.14-1.41-0.41s-0.76-0.65-1-1.13s-0.36-1.01-0.36-1.6v-0.26c0-0.59,0.12-1.12,0.35-1.61
		s0.56-0.87,0.97-1.14s0.86-0.41,1.34-0.41c0.71,0,1.29,0.25,1.73,0.76s0.67,1.17,0.67,1.99v0.33h-4.75v0.34
		c0,0.51,0.11,0.99,0.33,1.43s0.52,0.78,0.9,1.03c0.38,0.25,0.79,0.37,1.24,0.37c0.43,0,0.79-0.07,1.09-0.21
		c0.3-0.14,0.56-0.36,0.79-0.65l0.22,0.16C22.26,211.67,21.56,212.01,20.63,212.01z M20.51,205.76c-0.62,0-1.14,0.23-1.57,0.69
		s-0.68,1.04-0.76,1.75h4.42v-0.08c0-0.43-0.09-0.83-0.27-1.2s-0.43-0.66-0.75-0.86S20.91,205.76,20.51,205.76z"/>
	<path d="M31.18,210.34c0-0.77-0.66-1.29-1.97-1.57c-0.79-0.17-1.34-0.38-1.65-0.65s-0.46-0.63-0.46-1.09c0-0.46,0.2-0.85,0.59-1.15
		s0.9-0.45,1.53-0.45c0.68,0,1.23,0.16,1.65,0.49s0.62,0.77,0.62,1.32h-0.32c0-0.43-0.18-0.78-0.54-1.07s-0.83-0.43-1.41-0.43
		c-0.55,0-0.99,0.12-1.32,0.36s-0.49,0.54-0.49,0.91c0,0.29,0.06,0.51,0.18,0.67s0.32,0.31,0.59,0.44s0.67,0.26,1.2,0.38
		s0.94,0.26,1.24,0.43s0.53,0.36,0.66,0.58s0.21,0.5,0.21,0.82c0,0.5-0.21,0.9-0.62,1.21s-0.95,0.46-1.61,0.46
		c-0.71,0-1.28-0.16-1.72-0.48s-0.65-0.74-0.65-1.25h0.32c0.03,0.45,0.23,0.79,0.59,1.04s0.85,0.37,1.47,0.37
		c0.57,0,1.03-0.13,1.38-0.4S31.18,210.72,31.18,210.34z"/>
	<path d="M33.95,203.85v1.71h1.44v0.32h-1.44v4.5c0,0.45,0.07,0.78,0.22,1s0.39,0.32,0.74,0.32c0.17,0,0.38-0.02,0.63-0.05l0.05,0.3
		c-0.13,0.05-0.35,0.07-0.66,0.07c-0.46,0-0.79-0.13-0.99-0.38c-0.2-0.26-0.3-0.66-0.3-1.21v-4.54h-1.17v-0.32h1.17v-1.71H33.95z"/>
	<path d="M36.95,203.58c0-0.09,0.03-0.17,0.09-0.23s0.14-0.1,0.23-0.1s0.17,0.03,0.23,0.1s0.1,0.14,0.1,0.23s-0.03,0.17-0.1,0.23
		s-0.14,0.09-0.23,0.09s-0.17-0.03-0.23-0.09S36.95,203.67,36.95,203.58z M37.43,211.9h-0.32v-6.34h0.32V211.9z"/>
	<path d="M41.66,211.7c0.57,0,1.05-0.15,1.42-0.46s0.58-0.73,0.61-1.27h0.32c-0.03,0.61-0.27,1.11-0.71,1.48s-0.99,0.56-1.64,0.56
		c-0.79,0-1.42-0.29-1.89-0.86s-0.7-1.35-0.7-2.34v-0.21c0-0.96,0.23-1.73,0.7-2.3s1.09-0.86,1.88-0.86c0.67,0,1.23,0.2,1.66,0.6
		s0.67,0.94,0.7,1.61h-0.32c-0.03-0.57-0.23-1.03-0.6-1.37s-0.85-0.52-1.44-0.52c-0.71,0-1.26,0.25-1.66,0.76s-0.6,1.22-0.6,2.12
		v0.21c0,0.89,0.2,1.58,0.61,2.09S40.95,211.7,41.66,211.7z"/>
	<path d="M46.84,208.47l-0.01,0.01l-0.92,0.79v2.63H45.6v-9h0.32v6.03l0.74-0.7l2.88-2.67h0.45l-2.91,2.7l3.09,3.64h-0.41
		L46.84,208.47z"/>
	<path d="M53.55,212.01c-0.51,0-0.98-0.14-1.41-0.41s-0.76-0.65-1-1.13s-0.36-1.01-0.36-1.6v-0.26c0-0.59,0.12-1.12,0.35-1.61
		s0.56-0.87,0.97-1.14s0.86-0.41,1.34-0.41c0.71,0,1.29,0.25,1.73,0.76s0.67,1.17,0.67,1.99v0.33h-4.75v0.34
		c0,0.51,0.11,0.99,0.33,1.43s0.52,0.78,0.9,1.03c0.38,0.25,0.79,0.37,1.24,0.37c0.43,0,0.79-0.07,1.09-0.21
		c0.3-0.14,0.56-0.36,0.79-0.65l0.22,0.16C55.18,211.67,54.48,212.01,53.55,212.01z M53.44,205.76c-0.62,0-1.14,0.23-1.57,0.69
		s-0.68,1.04-0.76,1.75h4.42v-0.08c0-0.43-0.09-0.83-0.27-1.2s-0.43-0.66-0.75-0.86S53.83,205.76,53.44,205.76z"/>
	<path d="M60.12,205.79l-0.41-0.04c-0.54,0-0.99,0.17-1.35,0.52c-0.36,0.35-0.6,0.84-0.71,1.47v4.15h-0.32v-6.34h0.32v1.32
		c0.17-0.44,0.43-0.79,0.77-1.05s0.78-0.39,1.29-0.39c0.18,0,0.33,0.02,0.45,0.07L60.12,205.79z"/>
	<path d="M64.12,203.58c0-0.09,0.03-0.17,0.09-0.23s0.14-0.1,0.23-0.1s0.17,0.03,0.23,0.1s0.1,0.14,0.1,0.23s-0.03,0.17-0.1,0.23
		s-0.14,0.09-0.23,0.09s-0.17-0.03-0.23-0.09S64.12,203.67,64.12,203.58z M64.6,211.9h-0.32v-6.34h0.32V211.9z"/>
	<path d="M70.59,210.34c0-0.77-0.66-1.29-1.97-1.57c-0.79-0.17-1.34-0.38-1.65-0.65s-0.46-0.63-0.46-1.09c0-0.46,0.2-0.85,0.59-1.15
		s0.9-0.45,1.53-0.45c0.68,0,1.23,0.16,1.65,0.49s0.62,0.77,0.62,1.32h-0.32c0-0.43-0.18-0.78-0.54-1.07s-0.83-0.43-1.41-0.43
		c-0.55,0-0.99,0.12-1.32,0.36s-0.49,0.54-0.49,0.91c0,0.29,0.06,0.51,0.18,0.67s0.32,0.31,0.59,0.44s0.67,0.26,1.2,0.38
		s0.94,0.26,1.24,0.43s0.53,0.36,0.66,0.58s0.21,0.5,0.21,0.82c0,0.5-0.21,0.9-0.62,1.21s-0.95,0.46-1.61,0.46
		c-0.71,0-1.28-0.16-1.72-0.48s-0.65-0.74-0.65-1.25h0.32c0.03,0.45,0.23,0.79,0.59,1.04s0.85,0.37,1.47,0.37
		c0.57,0,1.03-0.13,1.38-0.4S70.59,210.72,70.59,210.34z"/>
	<path d="M76,211.9v-6.02h-1.1v-0.32H76v-0.93c0-0.59,0.15-1.04,0.44-1.37s0.7-0.49,1.22-0.49c0.29,0,0.54,0.03,0.75,0.1l-0.05,0.3
		c-0.2-0.06-0.44-0.09-0.7-0.09c-0.42,0-0.75,0.14-0.99,0.41s-0.36,0.66-0.36,1.16v0.9h1.68v0.32h-1.68v6.02H76z"/>
	<path d="M78.82,208.6c0-0.61,0.12-1.15,0.35-1.63s0.56-0.86,0.98-1.13s0.9-0.4,1.44-0.4c0.53,0,1.01,0.13,1.43,0.39
		s0.75,0.63,0.99,1.11s0.36,1.02,0.36,1.62v0.28c0,0.61-0.12,1.15-0.35,1.63s-0.56,0.86-0.98,1.13s-0.9,0.4-1.44,0.4
		s-1.01-0.13-1.44-0.4s-0.75-0.64-0.99-1.12s-0.35-1.02-0.36-1.61V208.6z M79.13,208.85c0,0.53,0.1,1.01,0.31,1.45
		s0.5,0.78,0.87,1.03s0.8,0.37,1.28,0.37c0.72,0,1.31-0.27,1.77-0.81s0.68-1.24,0.68-2.1v-0.18c0-0.52-0.11-1-0.32-1.44
		s-0.5-0.79-0.88-1.03s-0.8-0.37-1.27-0.37c-0.72,0-1.31,0.28-1.77,0.83s-0.69,1.24-0.69,2.08V208.85z"/>
	<path d="M88.7,205.79l-0.41-0.04c-0.54,0-0.99,0.17-1.35,0.52c-0.36,0.35-0.6,0.84-0.71,1.47v4.15H85.9v-6.34h0.32v1.32
		c0.17-0.44,0.43-0.79,0.77-1.05s0.78-0.39,1.29-0.39c0.18,0,0.33,0.02,0.45,0.07L88.7,205.79z"/>
</g>
<g>
	<path d="M75.15,228.17h-2.96v3.65h-0.32v-8.53h2.72c0.86,0,1.54,0.22,2.04,0.66s0.76,1.04,0.76,1.8c0,0.58-0.18,1.09-0.54,1.53
		s-0.82,0.71-1.38,0.81l2.28,3.65v0.08h-0.33L75.15,228.17z M72.19,227.85h2.69c0.66,0,1.19-0.2,1.59-0.6s0.61-0.9,0.61-1.51
		c0-0.66-0.22-1.19-0.67-1.57s-1.06-0.57-1.84-0.57h-2.38V227.85z"/>
	<path d="M79.11,228.53c0-0.61,0.12-1.15,0.35-1.63s0.56-0.86,0.98-1.13s0.9-0.4,1.44-0.4c0.53,0,1.01,0.13,1.43,0.39
		s0.75,0.63,0.99,1.11s0.36,1.02,0.36,1.62v0.28c0,0.61-0.12,1.15-0.35,1.63s-0.56,0.86-0.98,1.13s-0.9,0.4-1.44,0.4
		s-1.01-0.13-1.44-0.4s-0.75-0.64-0.99-1.12s-0.35-1.02-0.36-1.61V228.53z M79.43,228.77c0,0.53,0.1,1.01,0.31,1.45
		s0.5,0.78,0.87,1.03s0.8,0.37,1.28,0.37c0.72,0,1.31-0.27,1.77-0.81s0.68-1.24,0.68-2.1v-0.18c0-0.52-0.11-1-0.32-1.44
		s-0.5-0.79-0.88-1.03s-0.8-0.37-1.27-0.37c-0.72,0-1.31,0.28-1.77,0.83s-0.69,1.24-0.69,2.08V228.77z"/>
	<path d="M86.9,223.77v1.71h1.44v0.32H86.9v4.5c0,0.45,0.07,0.78,0.22,1s0.39,0.32,0.74,0.32c0.17,0,0.38-0.02,0.63-0.05l0.05,0.3
		c-0.13,0.05-0.35,0.07-0.66,0.07c-0.46,0-0.79-0.13-0.99-0.38c-0.2-0.26-0.3-0.66-0.3-1.21v-4.54h-1.17v-0.32h1.17v-1.71H86.9z"/>
	<path d="M94.09,231.82c-0.08-0.27-0.12-0.66-0.12-1.16c-0.25,0.41-0.59,0.72-1.03,0.94s-0.92,0.33-1.47,0.33
		c-0.59,0-1.06-0.16-1.42-0.48s-0.54-0.73-0.54-1.25c0-0.58,0.26-1.05,0.79-1.4s1.22-0.53,2.09-0.54h1.56v-0.93
		c0-0.53-0.17-0.94-0.5-1.24s-0.81-0.44-1.43-0.44c-0.58,0-1.06,0.15-1.45,0.45s-0.58,0.66-0.58,1.1l-0.32-0.01
		c0-0.52,0.23-0.95,0.68-1.31s1.01-0.54,1.66-0.54c0.68,0,1.23,0.17,1.63,0.51s0.61,0.82,0.62,1.44v3.03c0,0.7,0.05,1.17,0.16,1.42
		v0.05H94.09z M91.47,231.62c0.59,0,1.1-0.13,1.53-0.4s0.75-0.64,0.96-1.12v-1.51H92.5c-0.91,0-1.6,0.18-2.08,0.54
		c-0.39,0.29-0.59,0.66-0.59,1.1c0,0.39,0.15,0.71,0.46,0.98S91,231.62,91.47,231.62z"/>
	<path d="M97.03,223.77v1.71h1.44v0.32h-1.44v4.5c0,0.45,0.07,0.78,0.22,1s0.39,0.32,0.74,0.32c0.17,0,0.38-0.02,0.63-0.05l0.05,0.3
		c-0.13,0.05-0.35,0.07-0.66,0.07c-0.46,0-0.79-0.13-0.99-0.38c-0.2-0.26-0.3-0.66-0.3-1.21v-4.54h-1.17v-0.32h1.17v-1.71H97.03z"/>
	<path d="M102.4,231.94c-0.51,0-0.98-0.14-1.41-0.41s-0.76-0.65-1-1.13s-0.36-1.01-0.36-1.6v-0.26c0-0.59,0.12-1.12,0.35-1.61
		s0.56-0.87,0.97-1.14s0.86-0.41,1.34-0.41c0.71,0,1.29,0.25,1.73,0.76s0.67,1.17,0.67,1.99v0.33h-4.75v0.34
		c0,0.51,0.11,0.99,0.33,1.43s0.52,0.78,0.9,1.03c0.38,0.25,0.79,0.37,1.24,0.37c0.43,0,0.79-0.07,1.09-0.21
		c0.3-0.14,0.56-0.36,0.79-0.65l0.22,0.16C104.03,231.6,103.33,231.94,102.4,231.94z M102.28,225.68c-0.62,0-1.14,0.23-1.57,0.69
		s-0.68,1.04-0.76,1.75h4.42v-0.08c0-0.43-0.09-0.83-0.27-1.2s-0.43-0.66-0.75-0.86S102.68,225.68,102.28,225.68z"/>
	<path d="M109.75,223.77v1.71h1.44v0.32h-1.44v4.5c0,0.45,0.07,0.78,0.22,1s0.39,0.32,0.74,0.32c0.17,0,0.38-0.02,0.63-0.05
		l0.05,0.3c-0.13,0.05-0.35,0.07-0.66,0.07c-0.46,0-0.79-0.13-0.99-0.38c-0.2-0.26-0.3-0.66-0.3-1.21v-4.54h-1.17v-0.32h1.17v-1.71
		H109.75z"/>
	<path d="M113.15,226.96c0.21-0.49,0.51-0.88,0.91-1.17s0.85-0.43,1.34-0.43c0.68,0,1.18,0.19,1.51,0.58s0.5,0.97,0.5,1.74v4.14
		h-0.32v-4.14c0-0.68-0.14-1.18-0.42-1.51c-0.27-0.33-0.71-0.49-1.3-0.49c-0.55,0-1.02,0.19-1.42,0.58c-0.4,0.39-0.67,0.89-0.81,1.5
		v4.06h-0.32v-9h0.32V226.96z"/>
	<path d="M121.68,231.94c-0.51,0-0.98-0.14-1.41-0.41s-0.76-0.65-1-1.13s-0.36-1.01-0.36-1.6v-0.26c0-0.59,0.12-1.12,0.35-1.61
		s0.56-0.87,0.97-1.14s0.86-0.41,1.34-0.41c0.71,0,1.29,0.25,1.73,0.76s0.67,1.17,0.67,1.99v0.33h-4.75v0.34
		c0,0.51,0.11,0.99,0.33,1.43s0.52,0.78,0.9,1.03c0.38,0.25,0.79,0.37,1.24,0.37c0.43,0,0.79-0.07,1.09-0.21
		c0.3-0.14,0.56-0.36,0.79-0.65l0.22,0.16C123.31,231.6,122.61,231.94,121.68,231.94z M121.57,225.68c-0.62,0-1.14,0.23-1.57,0.69
		s-0.68,1.04-0.76,1.75h4.42v-0.08c0-0.43-0.09-0.83-0.27-1.2s-0.43-0.66-0.75-0.86S121.96,225.68,121.57,225.68z"/>
	<path d="M75.65,244.67c0-0.77-0.66-1.29-1.97-1.57c-0.79-0.17-1.34-0.38-1.65-0.65s-0.46-0.63-0.46-1.09c0-0.46,0.2-0.85,0.59-1.15
		s0.9-0.45,1.53-0.45c0.68,0,1.23,0.16,1.65,0.49s0.62,0.77,0.62,1.32h-0.32c0-0.43-0.18-0.78-0.54-1.07s-0.83-0.43-1.41-0.43
		c-0.55,0-0.99,0.12-1.32,0.36s-0.49,0.54-0.49,0.91c0,0.29,0.06,0.51,0.18,0.67s0.32,0.31,0.59,0.44s0.67,0.26,1.2,0.38
		s0.94,0.26,1.24,0.43s0.53,0.36,0.66,0.58s0.21,0.5,0.21,0.82c0,0.5-0.21,0.9-0.62,1.21s-0.95,0.46-1.61,0.46
		c-0.71,0-1.28-0.16-1.72-0.48s-0.65-0.74-0.65-1.25h0.32c0.03,0.45,0.23,0.79,0.59,1.04s0.85,0.37,1.47,0.37
		c0.57,0,1.03-0.13,1.38-0.4S75.65,245.04,75.65,244.67z"/>
	<path d="M78.42,238.17v1.71h1.44v0.32h-1.44v4.5c0,0.45,0.07,0.78,0.22,1s0.39,0.32,0.74,0.32c0.17,0,0.38-0.02,0.63-0.05l0.05,0.3
		c-0.13,0.05-0.35,0.07-0.66,0.07c-0.46,0-0.79-0.13-0.99-0.38c-0.2-0.26-0.3-0.66-0.3-1.21v-4.54h-1.17v-0.32h1.17v-1.71H78.42z"/>
	<path d="M81.42,237.9c0-0.09,0.03-0.17,0.09-0.23s0.14-0.1,0.23-0.1s0.17,0.03,0.23,0.1s0.1,0.14,0.1,0.23s-0.03,0.17-0.1,0.23
		s-0.14,0.09-0.23,0.09s-0.17-0.03-0.23-0.09S81.42,237.99,81.42,237.9z M81.9,246.22h-0.32v-6.34h0.32V246.22z"/>
	<path d="M86.13,246.02c0.57,0,1.05-0.15,1.42-0.46s0.58-0.73,0.61-1.27h0.32c-0.03,0.61-0.27,1.11-0.71,1.48s-0.99,0.56-1.64,0.56
		c-0.79,0-1.42-0.29-1.89-0.86s-0.7-1.35-0.7-2.34v-0.21c0-0.96,0.23-1.73,0.7-2.3s1.09-0.86,1.88-0.86c0.67,0,1.23,0.2,1.66,0.6
		s0.67,0.94,0.7,1.61h-0.32c-0.03-0.57-0.23-1.03-0.6-1.37s-0.85-0.52-1.44-0.52c-0.71,0-1.26,0.25-1.66,0.76s-0.6,1.22-0.6,2.12
		v0.21c0,0.89,0.2,1.58,0.61,2.09S85.42,246.02,86.13,246.02z"/>
	<path d="M91.31,242.79l-0.01,0.01l-0.92,0.79v2.63h-0.32v-9h0.32v6.03l0.74-0.7l2.88-2.67h0.45l-2.91,2.7l3.09,3.64h-0.41
		L91.31,242.79z"/>
	<path d="M98.02,246.34c-0.51,0-0.98-0.14-1.41-0.41s-0.76-0.65-1-1.13s-0.36-1.01-0.36-1.6v-0.26c0-0.59,0.12-1.12,0.35-1.61
		s0.56-0.87,0.97-1.14s0.86-0.41,1.34-0.41c0.71,0,1.29,0.25,1.73,0.76s0.67,1.17,0.67,1.99v0.33h-4.75v0.34
		c0,0.51,0.11,0.99,0.33,1.43s0.52,0.78,0.9,1.03c0.38,0.25,0.79,0.37,1.24,0.37c0.43,0,0.79-0.07,1.09-0.21
		c0.3-0.14,0.56-0.36,0.79-0.65l0.22,0.16C99.65,246,98.95,246.34,98.02,246.34z M97.91,240.08c-0.62,0-1.14,0.23-1.57,0.69
		s-0.68,1.04-0.76,1.75H100v-0.08c0-0.43-0.09-0.83-0.27-1.2s-0.43-0.66-0.75-0.86S98.3,240.08,97.91,240.08z"/>
	<path d="M104.59,240.12l-0.41-0.04c-0.54,0-0.99,0.17-1.35,0.52c-0.36,0.35-0.6,0.84-0.71,1.47v4.15h-0.32v-6.34h0.32v1.32
		c0.17-0.44,0.43-0.79,0.77-1.05s0.78-0.39,1.29-0.39c0.18,0,0.33,0.02,0.45,0.07L104.59,240.12z"/>
	<path d="M113.17,241.98c-0.21,0.45-0.53,0.81-0.96,1.09s-0.93,0.41-1.47,0.41c-0.47,0-0.89-0.13-1.27-0.38s-0.67-0.6-0.88-1.04
		s-0.32-0.93-0.32-1.45c0-0.56,0.11-1.07,0.32-1.54s0.52-0.83,0.9-1.1s0.81-0.4,1.28-0.4c0.88,0,1.55,0.29,2.01,0.86
		s0.69,1.4,0.7,2.48v0.98c0,1.44-0.32,2.54-0.96,3.3s-1.58,1.14-2.83,1.16h-0.28l0.01-0.32h0.25c1.14-0.01,2.01-0.36,2.6-1.04
		S113.17,243.29,113.17,241.98z M110.73,243.16c0.58,0,1.09-0.17,1.54-0.51s0.75-0.79,0.9-1.35v-0.36c0-0.99-0.2-1.74-0.61-2.26
		s-0.99-0.78-1.75-0.78c-0.42,0-0.8,0.12-1.14,0.37s-0.6,0.58-0.79,1s-0.28,0.87-0.28,1.34c0,0.46,0.09,0.9,0.28,1.29
		s0.44,0.71,0.76,0.93S110.32,243.16,110.73,243.16z"/>
	<path d="M120.07,242.74c0,1.14-0.22,2.03-0.67,2.66s-1.07,0.94-1.88,0.94c-0.8,0-1.43-0.32-1.88-0.95s-0.68-1.52-0.68-2.67v-1.55
		c0-1.13,0.22-2.02,0.67-2.65s1.07-0.95,1.88-0.95c0.81,0,1.44,0.32,1.88,0.95s0.67,1.53,0.67,2.67V242.74z M119.76,241.17
		c0-1.04-0.19-1.84-0.58-2.42s-0.94-0.87-1.66-0.87c-0.72,0-1.27,0.29-1.66,0.87s-0.58,1.4-0.58,2.45v1.53
		c0,1.03,0.2,1.84,0.59,2.42s0.95,0.87,1.65,0.87c0.71,0,1.26-0.29,1.65-0.87s0.58-1.4,0.58-2.45V241.17z"/>
	<path d="M121.72,238.98c0-0.38,0.13-0.71,0.4-0.99s0.6-0.42,0.98-0.42c0.38,0,0.7,0.14,0.96,0.42s0.4,0.61,0.4,0.99
		c0,0.38-0.13,0.71-0.4,0.98s-0.59,0.41-0.96,0.41c-0.38,0-0.71-0.13-0.98-0.4S121.72,239.37,121.72,238.98z M122.04,238.98
		c0,0.3,0.1,0.55,0.3,0.76c0.2,0.2,0.45,0.31,0.76,0.31c0.3,0,0.54-0.1,0.74-0.3c0.2-0.2,0.29-0.45,0.29-0.77
		c0-0.32-0.1-0.58-0.3-0.78c-0.2-0.2-0.44-0.3-0.74-0.3c-0.3,0-0.56,0.1-0.76,0.31S122.04,238.67,122.04,238.98z"/>
</g>
<g>
	<path d="M182.57,195.04c0,0.74-0.13,1.39-0.4,1.96s-0.64,1.01-1.13,1.32s-1.05,0.47-1.69,0.47c-0.96,0-1.74-0.34-2.33-1.03
		s-0.89-1.61-0.89-2.77v-1.23c0-0.73,0.13-1.39,0.4-1.96s0.64-1.01,1.13-1.32s1.05-0.47,1.68-0.47c0.64,0,1.2,0.16,1.69,0.47
		s0.87,0.75,1.13,1.32s0.4,1.22,0.4,1.95V195.04z M182.26,193.75c0-1.03-0.26-1.86-0.79-2.48s-1.23-0.93-2.12-0.93
		c-0.88,0-1.58,0.31-2.1,0.93s-0.79,1.46-0.79,2.53v1.25c0,0.68,0.12,1.28,0.35,1.8s0.57,0.92,1.01,1.2s0.95,0.42,1.54,0.42
		c0.89,0,1.6-0.31,2.12-0.93s0.78-1.47,0.78-2.54V193.75z"/>
	<path d="M189.21,195.55c0,0.99-0.21,1.77-0.64,2.36s-1.01,0.87-1.74,0.87c-0.48,0-0.91-0.1-1.28-0.29s-0.67-0.46-0.88-0.81v3.42
		h-0.32v-8.78h0.32v1.13c0.22-0.4,0.51-0.71,0.88-0.93s0.79-0.32,1.27-0.32c0.74,0,1.33,0.28,1.75,0.85s0.64,1.37,0.64,2.39V195.55z
		 M188.88,195.43c0-0.91-0.18-1.62-0.54-2.14s-0.87-0.77-1.52-0.77c-0.53,0-0.98,0.14-1.35,0.41s-0.64,0.67-0.8,1.19v2.96
		c0.16,0.44,0.43,0.78,0.81,1.02s0.83,0.36,1.36,0.36c0.65,0,1.15-0.26,1.51-0.77S188.88,196.42,188.88,195.43z"/>
	<path d="M193.21,198.78c-0.51,0-0.98-0.14-1.41-0.41s-0.76-0.65-1-1.13s-0.36-1.01-0.36-1.6v-0.26c0-0.59,0.12-1.12,0.35-1.61
		s0.56-0.87,0.97-1.14s0.86-0.41,1.34-0.41c0.71,0,1.29,0.25,1.73,0.76s0.67,1.17,0.67,1.99v0.33h-4.75v0.34
		c0,0.51,0.11,0.99,0.33,1.43s0.52,0.78,0.9,1.03c0.38,0.25,0.79,0.37,1.24,0.37c0.43,0,0.79-0.07,1.09-0.21
		c0.3-0.14,0.56-0.36,0.79-0.65l0.22,0.16C194.84,198.44,194.14,198.78,193.21,198.78z M193.09,192.53c-0.62,0-1.14,0.23-1.57,0.69
		s-0.68,1.04-0.76,1.75h4.42v-0.08c0-0.43-0.09-0.83-0.27-1.2s-0.43-0.66-0.75-0.86S193.48,192.53,193.09,192.53z"/>
	<path d="M197.29,193.8c0.21-0.49,0.51-0.88,0.91-1.17s0.85-0.43,1.34-0.43c0.68,0,1.18,0.19,1.51,0.58s0.5,0.97,0.5,1.74v4.14
		h-0.32v-4.14c0-0.68-0.14-1.18-0.42-1.51c-0.27-0.33-0.71-0.49-1.3-0.49c-0.55,0-1.02,0.19-1.42,0.58c-0.4,0.39-0.67,0.89-0.81,1.5
		v4.06h-0.32v-6.34h0.32V193.8z"/>
	<path d="M211.69,196.62c0-0.36-0.08-0.67-0.25-0.92s-0.44-0.47-0.8-0.67s-0.92-0.39-1.66-0.59s-1.29-0.41-1.66-0.62
		s-0.64-0.45-0.81-0.72s-0.26-0.61-0.26-1c0-0.62,0.26-1.12,0.79-1.51s1.21-0.58,2.04-0.58c0.55,0,1.04,0.11,1.47,0.32
		s0.77,0.51,1.01,0.9s0.36,0.82,0.36,1.3h-0.32c0-0.64-0.23-1.16-0.7-1.58s-1.08-0.62-1.82-0.62c-0.75,0-1.36,0.17-1.82,0.5
		s-0.69,0.75-0.69,1.26c0,0.51,0.2,0.92,0.6,1.24s1.07,0.59,1.99,0.83s1.6,0.52,2.03,0.83c0.55,0.4,0.82,0.94,0.82,1.62
		c0,0.43-0.12,0.81-0.36,1.14s-0.59,0.58-1.03,0.76s-0.95,0.27-1.5,0.27c-0.62,0-1.17-0.1-1.66-0.31s-0.86-0.5-1.11-0.88
		s-0.37-0.83-0.37-1.34h0.32c0,0.7,0.26,1.24,0.79,1.63s1.21,0.58,2.04,0.58c0.75,0,1.36-0.17,1.85-0.51
		S211.69,197.17,211.69,196.62z"/>
	<path d="M215.92,197.83l0.17,0.52l0.17-0.52l2.87-7.7h0.35l-3.19,8.53h-0.39l-3.19-8.53h0.35L215.92,197.83z"/>
	<path d="M226.85,197.75c-0.21,0.3-0.59,0.54-1.13,0.74s-1.13,0.29-1.78,0.29c-0.63,0-1.2-0.15-1.69-0.46s-0.88-0.74-1.16-1.31
		s-0.42-1.2-0.43-1.91v-1.46c0-0.7,0.13-1.33,0.4-1.88s0.65-0.98,1.14-1.29s1.04-0.45,1.65-0.45c0.85,0,1.54,0.22,2.07,0.65
		s0.84,1.03,0.93,1.78h-0.32c-0.11-0.68-0.39-1.2-0.85-1.56s-1.07-0.54-1.83-0.54c-0.86,0-1.55,0.31-2.08,0.92s-0.79,1.42-0.79,2.42
		v1.36c0,0.67,0.12,1.26,0.37,1.79s0.6,0.93,1.05,1.22s0.97,0.43,1.55,0.43c0.57,0,1.1-0.08,1.59-0.25
		c0.49-0.17,0.82-0.37,1.01-0.61v-2.49h-2.61v-0.32h2.92V197.75z"/>
	<path d="M232.27,198.67v-6.02h-1.1v-0.32h1.1v-0.93c0-0.59,0.15-1.04,0.44-1.37s0.7-0.49,1.22-0.49c0.29,0,0.54,0.03,0.75,0.1
		l-0.05,0.3c-0.2-0.06-0.44-0.09-0.7-0.09c-0.42,0-0.75,0.14-0.99,0.41s-0.36,0.66-0.36,1.16v0.9h1.68v0.32h-1.68v6.02H232.27z"/>
	<path d="M235.48,190.35c0-0.09,0.03-0.17,0.09-0.23s0.14-0.1,0.23-0.1s0.17,0.03,0.23,0.1s0.1,0.14,0.1,0.23s-0.03,0.17-0.1,0.23
		s-0.14,0.09-0.23,0.09s-0.17-0.03-0.23-0.09S235.48,190.44,235.48,190.35z M235.96,198.67h-0.32v-6.34h0.32V198.67z"/>
	<path d="M238.43,198.67h-0.32v-9h0.32V198.67z"/>
	<path d="M242.79,198.78c-0.51,0-0.98-0.14-1.41-0.41s-0.76-0.65-1-1.13s-0.36-1.01-0.36-1.6v-0.26c0-0.59,0.12-1.12,0.35-1.61
		s0.56-0.87,0.97-1.14s0.86-0.41,1.34-0.41c0.71,0,1.29,0.25,1.73,0.76s0.67,1.17,0.67,1.99v0.33h-4.75v0.34
		c0,0.51,0.11,0.99,0.33,1.43s0.52,0.78,0.9,1.03c0.38,0.25,0.79,0.37,1.24,0.37c0.43,0,0.79-0.07,1.09-0.21
		c0.3-0.14,0.56-0.36,0.79-0.65l0.22,0.16C244.42,198.44,243.72,198.78,242.79,198.78z M242.67,192.53c-0.62,0-1.14,0.23-1.57,0.69
		s-0.68,1.04-0.76,1.75h4.42v-0.08c0-0.43-0.09-0.83-0.27-1.2s-0.43-0.66-0.75-0.86S243.07,192.53,242.67,192.53z"/>
</g>
<g>
	<path d="M168.18,219.29h-4.28v3.91h4.88v0.32h-5.19v-8.53h5.19v0.32h-4.88v3.67h4.28V219.29z"/>
	<path d="M172.11,219.99l2.02-2.81h0.4l-2.23,3.09l2.34,3.25h-0.39l-2.15-2.98l-2.14,2.98h-0.39l2.34-3.25l-2.23-3.09h0.4
		L172.11,219.99z"/>
	<path d="M180.83,220.41c0,0.99-0.21,1.77-0.64,2.36s-1.01,0.87-1.74,0.87c-0.48,0-0.91-0.1-1.28-0.29s-0.67-0.46-0.88-0.81v3.42
		h-0.32v-8.78h0.32v1.13c0.22-0.4,0.51-0.71,0.88-0.93s0.79-0.32,1.27-0.32c0.74,0,1.33,0.28,1.75,0.85s0.64,1.37,0.64,2.39V220.41z
		 M180.51,220.28c0-0.91-0.18-1.62-0.54-2.14s-0.87-0.77-1.52-0.77c-0.53,0-0.98,0.14-1.35,0.41s-0.64,0.67-0.8,1.19v2.96
		c0.16,0.44,0.43,0.78,0.81,1.02s0.83,0.36,1.36,0.36c0.65,0,1.15-0.26,1.51-0.77S180.51,221.28,180.51,220.28z"/>
	<path d="M182.07,220.23c0-0.61,0.12-1.15,0.35-1.63s0.56-0.86,0.98-1.13s0.9-0.4,1.44-0.4c0.53,0,1.01,0.13,1.43,0.39
		s0.75,0.63,0.99,1.11s0.36,1.02,0.36,1.62v0.28c0,0.61-0.12,1.15-0.35,1.63s-0.56,0.86-0.98,1.13s-0.9,0.4-1.44,0.4
		s-1.01-0.13-1.44-0.4s-0.75-0.64-0.99-1.12s-0.35-1.02-0.36-1.61V220.23z M182.39,220.47c0,0.53,0.1,1.01,0.31,1.45
		s0.5,0.78,0.87,1.03s0.8,0.37,1.28,0.37c0.72,0,1.31-0.27,1.77-0.81s0.68-1.24,0.68-2.1v-0.18c0-0.52-0.11-1-0.32-1.44
		s-0.5-0.79-0.88-1.03s-0.8-0.37-1.27-0.37c-0.72,0-1.31,0.28-1.77,0.83s-0.69,1.24-0.69,2.08V220.47z"/>
	<path d="M191.95,217.41l-0.41-0.04c-0.54,0-0.99,0.17-1.35,0.52c-0.36,0.35-0.6,0.84-0.71,1.47v4.15h-0.32v-6.34h0.32v1.32
		c0.17-0.44,0.43-0.79,0.77-1.05s0.78-0.39,1.29-0.39c0.18,0,0.33,0.02,0.45,0.07L191.95,217.41z"/>
	<path d="M194.17,215.47v1.71h1.44v0.32h-1.44v4.5c0,0.45,0.07,0.78,0.22,1s0.39,0.32,0.74,0.32c0.17,0,0.38-0.02,0.63-0.05
		l0.05,0.3c-0.13,0.05-0.35,0.07-0.66,0.07c-0.46,0-0.79-0.13-0.99-0.38c-0.2-0.26-0.3-0.66-0.3-1.21v-4.54h-1.17v-0.32h1.17v-1.71
		H194.17z"/>
	<path d="M204.04,221.97c0-0.77-0.66-1.29-1.97-1.57c-0.79-0.17-1.34-0.38-1.65-0.65s-0.46-0.63-0.46-1.09
		c0-0.46,0.2-0.85,0.59-1.15s0.9-0.45,1.53-0.45c0.68,0,1.23,0.16,1.65,0.49s0.62,0.77,0.62,1.32h-0.32c0-0.43-0.18-0.78-0.54-1.07
		s-0.83-0.43-1.41-0.43c-0.55,0-0.99,0.12-1.32,0.36s-0.49,0.54-0.49,0.91c0,0.29,0.06,0.51,0.18,0.67s0.32,0.31,0.59,0.44
		s0.67,0.26,1.2,0.38s0.94,0.26,1.24,0.43s0.53,0.36,0.66,0.58s0.21,0.5,0.21,0.82c0,0.5-0.21,0.9-0.62,1.21s-0.95,0.46-1.61,0.46
		c-0.71,0-1.28-0.16-1.72-0.48s-0.65-0.74-0.65-1.25h0.32c0.03,0.45,0.23,0.79,0.59,1.04s0.85,0.37,1.47,0.37
		c0.57,0,1.03-0.13,1.38-0.4S204.04,222.34,204.04,221.97z"/>
	<path d="M206.81,215.47v1.71h1.44v0.32h-1.44v4.5c0,0.45,0.07,0.78,0.22,1s0.39,0.32,0.74,0.32c0.17,0,0.38-0.02,0.63-0.05
		l0.05,0.3c-0.13,0.05-0.35,0.07-0.66,0.07c-0.46,0-0.79-0.13-0.99-0.38c-0.2-0.26-0.3-0.66-0.3-1.21v-4.54h-1.17v-0.32h1.17v-1.71
		H206.81z"/>
	<path d="M209.81,215.2c0-0.09,0.03-0.17,0.09-0.23s0.14-0.1,0.23-0.1s0.17,0.03,0.23,0.1s0.1,0.14,0.1,0.23s-0.03,0.17-0.1,0.23
		s-0.14,0.09-0.23,0.09s-0.17-0.03-0.23-0.09S209.81,215.29,209.81,215.2z M210.29,223.52h-0.32v-6.34h0.32V223.52z"/>
	<path d="M214.52,223.32c0.57,0,1.05-0.15,1.42-0.46s0.58-0.73,0.61-1.27h0.32c-0.03,0.61-0.27,1.11-0.71,1.48s-0.99,0.56-1.64,0.56
		c-0.79,0-1.42-0.29-1.89-0.86s-0.7-1.35-0.7-2.34v-0.21c0-0.96,0.23-1.73,0.7-2.3s1.09-0.86,1.88-0.86c0.67,0,1.23,0.2,1.66,0.6
		s0.67,0.94,0.7,1.61h-0.32c-0.03-0.57-0.23-1.03-0.6-1.37s-0.85-0.52-1.44-0.52c-0.71,0-1.26,0.25-1.66,0.76s-0.6,1.22-0.6,2.12
		v0.21c0,0.89,0.2,1.58,0.61,2.09S213.82,223.32,214.52,223.32z"/>
	<path d="M219.71,220.09l-0.01,0.01l-0.92,0.79v2.63h-0.32v-9h0.32v6.03l0.74-0.7l2.88-2.67h0.45l-2.91,2.7l3.09,3.64h-0.41
		L219.71,220.09z"/>
	<path d="M226.42,223.64c-0.51,0-0.98-0.14-1.41-0.41s-0.76-0.65-1-1.13s-0.36-1.01-0.36-1.6v-0.26c0-0.59,0.12-1.12,0.35-1.61
		s0.56-0.87,0.97-1.14s0.86-0.41,1.34-0.41c0.71,0,1.29,0.25,1.73,0.76s0.67,1.17,0.67,1.99v0.33h-4.75v0.34
		c0,0.51,0.11,0.99,0.33,1.43s0.52,0.78,0.9,1.03c0.38,0.25,0.79,0.37,1.24,0.37c0.43,0,0.79-0.07,1.09-0.21
		c0.3-0.14,0.56-0.36,0.79-0.65l0.22,0.16C228.05,223.29,227.35,223.64,226.42,223.64z M226.3,217.38c-0.62,0-1.14,0.23-1.57,0.69
		s-0.68,1.04-0.76,1.75h4.42v-0.08c0-0.43-0.09-0.83-0.27-1.2s-0.43-0.66-0.75-0.86S226.69,217.38,226.3,217.38z"/>
	<path d="M232.98,217.41l-0.41-0.04c-0.54,0-0.99,0.17-1.35,0.52c-0.36,0.35-0.6,0.84-0.71,1.47v4.15h-0.32v-6.34h0.32v1.32
		c0.17-0.44,0.43-0.79,0.77-1.05s0.78-0.39,1.29-0.39c0.18,0,0.33,0.02,0.45,0.07L232.98,217.41z"/>
</g>
<g>
	<g>
		<path class="st0" d="M30.64,214.91c-10.02,10.37-18.5,30.08-18.86,48.06"/>
		<g>
			<path d="M7.19,255.99c0.24-0.14,0.54-0.06,0.69,0.17l3.92,6.57l4.3-6.34c0.16-0.23,0.47-0.29,0.69-0.13
				c0.23,0.16,0.29,0.47,0.13,0.69l-4.74,6.99c-0.1,0.14-0.26,0.22-0.43,0.22c-0.17,0-0.33-0.1-0.42-0.24l-4.33-7.25
				c-0.05-0.08-0.07-0.18-0.07-0.27C6.96,256.24,7.04,256.08,7.19,255.99z"/>
		</g>
	</g>
</g>
<g>
	<g>
		<path class="st0" d="M75.83,44.95c-17.38-0.3-41.42-9.9-56.99-24.95"/>
		<g>
			<path d="M27.13,21.18c-0.05,0.27-0.31,0.45-0.59,0.4l-7.52-1.44l1.87,7.42c0.07,0.27-0.1,0.54-0.36,0.61
				c-0.27,0.07-0.54-0.1-0.61-0.36l-2.06-8.18c-0.04-0.17,0-0.34,0.12-0.47s0.29-0.18,0.46-0.15l8.29,1.59
				c0.1,0.02,0.18,0.06,0.25,0.13C27.1,20.83,27.16,21.01,27.13,21.18z"/>
		</g>
	</g>
</g>
<g>
	<g>
		<path class="st0" d="M67.2,235.27c-4.36,4.36-9.85,18.51-10.23,29.66"/>
		<g>
			<path d="M52.63,257.83c0.24-0.13,0.55-0.05,0.68,0.19l3.73,6.68l4.48-6.21c0.16-0.22,0.48-0.27,0.7-0.11
				c0.22,0.16,0.27,0.48,0.11,0.7l-4.94,6.84c-0.1,0.14-0.26,0.22-0.43,0.21c-0.17-0.01-0.32-0.11-0.41-0.26l-4.11-7.37
				c-0.05-0.09-0.07-0.18-0.06-0.27C52.38,258.07,52.47,257.91,52.63,257.83z"/>
		</g>
	</g>
</g>
<g>
	<g>
		<path class="st0" d="M41.75,96.44c5.08,22.32,19.9,44.65,47.38,45.28"/>
		<g>
			<path d="M82.06,146.12c-0.14-0.24-0.05-0.55,0.19-0.68l6.66-3.78l-6.24-4.43c-0.23-0.16-0.28-0.47-0.12-0.7
				c0.16-0.22,0.47-0.28,0.7-0.12l6.88,4.89c0.14,0.1,0.22,0.26,0.21,0.43c-0.01,0.17-0.1,0.33-0.25,0.41l-7.34,4.17
				c-0.09,0.05-0.18,0.07-0.27,0.06C82.31,146.37,82.15,146.28,82.06,146.12z"/>
		</g>
	</g>
</g>
<g>
	<g>
		<path class="st0" d="M247.63,195.11c23.62,25.5,24.08,50.85,24.09,71.21"/>
		<g>
			<path d="M266.87,259.51c0.23-0.15,0.54-0.08,0.69,0.15l4.15,6.43l4.07-6.48c0.15-0.23,0.46-0.3,0.69-0.16s0.3,0.46,0.16,0.69
				l-4.49,7.15c-0.09,0.14-0.25,0.23-0.42,0.23c-0.17,0-0.33-0.09-0.42-0.23l-4.58-7.09c-0.05-0.08-0.08-0.18-0.08-0.27
				C266.64,259.77,266.72,259.61,266.87,259.51z"/>
		</g>
	</g>
</g>
<g>
	<g>
		<path class="st0" d="M207.36,226.47c10.83,10.27,15.89,26.18,16.17,39.85"/>
		<g>
			<path d="M218.38,259.7c0.23-0.16,0.54-0.1,0.7,0.12l4.4,6.27l3.82-6.63c0.14-0.24,0.44-0.32,0.68-0.18
				c0.24,0.14,0.32,0.45,0.18,0.68l-4.21,7.31c-0.09,0.15-0.24,0.24-0.41,0.25c-0.17,0.01-0.33-0.07-0.43-0.21l-4.85-6.91
				c-0.06-0.08-0.09-0.17-0.09-0.26C218.16,259.97,218.24,259.8,218.38,259.7z"/>
		</g>
	</g>
</g>
</svg>
